<svg xmlns="http://www.w3.org/2000/svg" xmlns:xlink="http://www.w3.org/1999/xlink" width="150" zoomAndPan="magnify" viewBox="0 0 112.5 112.499997" height="150" preserveAspectRatio="xMidYMid meet" version="1.0"><defs><clipPath id="5dd062e290"><path d="M 3.910156 3.910156 L 108.445312 3.910156 L 108.445312 108.445312 L 3.910156 108.445312 Z M 3.910156 3.910156 " clip-rule="nonzero"/></clipPath></defs><g clip-path="url(#5dd062e290)"><path fill="#100f0d" d="M 84.675781 47.691406 L 84.675781 57.429688 L 81.417969 57.429688 C 79.011719 65.125 71.851562 74.269531 56.1875 85.257812 C 37.199219 71.941406 30.707031 61.324219 30.035156 52.71875 L 30.035156 49.726562 C 30.753906 40.738281 36.679688 36.046875 41.804688 35.546875 C 42.648438 35.464844 43.433594 35.421875 44.175781 35.421875 C 50.09375 35.421875 52.9375 37.980469 56.1875 41.859375 C 59.4375 37.980469 62.277344 35.421875 68.199219 35.421875 C 68.941406 35.421875 69.726562 35.464844 70.570312 35.546875 C 71.703125 35.65625 72.875 35.972656 74.019531 36.492188 L 74.019531 27.296875 L 84.675781 27.296875 L 84.675781 37.035156 L 94.414062 37.035156 L 94.414062 47.691406 Z M 56.1875 3.914062 C 27.320312 3.914062 3.914062 27.320312 3.914062 56.1875 C 3.914062 85.058594 27.320312 108.460938 56.1875 108.460938 C 85.058594 108.460938 108.460938 85.058594 108.460938 56.1875 C 108.460938 27.320312 85.058594 3.914062 56.1875 3.914062 " fill-opacity="1" fill-rule="nonzero"/></g><path fill="#100f0d" d="M 82.410156 39.296875 L 82.410156 29.558594 L 76.285156 29.558594 L 76.285156 39.296875 L 66.542969 39.296875 L 66.542969 45.425781 L 76.285156 45.425781 L 76.285156 55.164062 L 82.410156 55.164062 L 82.410156 45.425781 L 92.148438 45.425781 L 92.148438 39.296875 L 82.410156 39.296875 " fill-opacity="1" fill-rule="nonzero"/></svg>