<svg xmlns="http://www.w3.org/2000/svg" xmlns:xlink="http://www.w3.org/1999/xlink" width="150" zoomAndPan="magnify" viewBox="0 0 112.5 112.499997" height="150" preserveAspectRatio="xMidYMid meet" version="1.0"><defs><clipPath id="319923a231"><path d="M 43 1.320312 L 69 1.320312 L 69 27 L 43 27 Z M 43 1.320312 " clip-rule="nonzero"/></clipPath><clipPath id="c237d0e4d0"><path d="M 1.320312 43 L 27 43 L 27 69 L 1.320312 69 Z M 1.320312 43 " clip-rule="nonzero"/></clipPath><clipPath id="fedc95b9d0"><path d="M 43 85 L 69 85 L 69 110.335938 L 43 110.335938 Z M 43 85 " clip-rule="nonzero"/></clipPath><clipPath id="b21442f239"><path d="M 85 43 L 110.335938 43 L 110.335938 69 L 85 69 Z M 85 43 " clip-rule="nonzero"/></clipPath></defs><path fill="#ffffff" d="M 55.996094 17.472656 C 53.023438 17.472656 50.601562 15.050781 50.601562 12.078125 C 50.601562 9.101562 53.023438 6.683594 55.996094 6.683594 C 58.972656 6.683594 61.394531 9.101562 61.394531 12.078125 C 61.394531 15.050781 58.976562 17.472656 55.996094 17.472656 Z M 55.996094 9.164062 C 54.390625 9.164062 53.085938 10.472656 53.085938 12.074219 C 53.085938 13.679688 54.394531 14.984375 55.996094 14.984375 C 57.601562 14.984375 58.90625 13.679688 58.90625 12.074219 C 58.90625 10.472656 57.601562 9.164062 55.996094 9.164062 Z M 55.996094 9.164062 " fill-opacity="1" fill-rule="nonzero"/><path fill="#ffffff" d="M 63.636719 23.859375 C 63.046875 23.859375 62.523438 23.4375 62.414062 22.835938 C 61.859375 19.726562 59.160156 17.472656 55.996094 17.472656 C 52.835938 17.472656 50.136719 19.730469 49.578125 22.835938 C 49.457031 23.511719 48.808594 23.960938 48.136719 23.839844 C 47.460938 23.71875 47.011719 23.074219 47.132812 22.398438 C 47.902344 18.105469 51.632812 14.988281 55.996094 14.988281 C 60.367188 14.988281 64.09375 18.105469 64.859375 22.402344 C 64.980469 23.078125 64.53125 23.726562 63.855469 23.84375 C 63.785156 23.855469 63.710938 23.859375 63.636719 23.859375 Z M 63.636719 23.859375 " fill-opacity="1" fill-rule="nonzero"/><g clip-path="url(#319923a231)"><path fill="#ffffff" d="M 55.996094 26.773438 C 48.980469 26.773438 43.269531 21.0625 43.269531 14.046875 C 43.269531 7.027344 48.980469 1.320312 55.996094 1.320312 C 63.015625 1.320312 68.726562 7.03125 68.726562 14.046875 C 68.726562 21.066406 63.015625 26.773438 55.996094 26.773438 Z M 55.996094 3.804688 C 50.351562 3.804688 45.757812 8.398438 45.757812 14.046875 C 45.757812 19.699219 50.347656 24.289062 55.996094 24.289062 C 61.648438 24.289062 66.238281 19.699219 66.238281 14.046875 C 66.238281 8.398438 61.644531 3.804688 55.996094 3.804688 Z M 55.996094 3.804688 " fill-opacity="1" fill-rule="nonzero"/></g><path fill="#ffffff" d="M 14.046875 59.421875 C 11.074219 59.421875 8.652344 57 8.652344 54.027344 C 8.652344 51.050781 11.074219 48.632812 14.046875 48.632812 C 17.023438 48.632812 19.445312 51.050781 19.445312 54.027344 C 19.445312 57 17.023438 59.421875 14.046875 59.421875 Z M 14.046875 51.113281 C 12.441406 51.113281 11.136719 52.421875 11.136719 54.023438 C 11.136719 55.628906 12.445312 56.933594 14.046875 56.933594 C 15.652344 56.933594 16.957031 55.628906 16.957031 54.023438 C 16.957031 52.421875 15.652344 51.113281 14.046875 51.113281 Z M 14.046875 51.113281 " fill-opacity="1" fill-rule="nonzero"/><path fill="#ffffff" d="M 21.6875 65.8125 C 21.09375 65.8125 20.570312 65.390625 20.460938 64.789062 C 19.910156 61.679688 17.210938 59.425781 14.046875 59.425781 C 10.882812 59.425781 8.183594 61.683594 7.625 64.789062 C 7.503906 65.464844 6.859375 65.910156 6.183594 65.792969 C 5.507812 65.671875 5.058594 65.023438 5.179688 64.351562 C 5.949219 60.054688 9.679688 56.941406 14.046875 56.941406 C 18.414062 56.941406 22.144531 60.058594 22.910156 64.355469 C 23.027344 65.03125 22.578125 65.679688 21.90625 65.796875 C 21.832031 65.804688 21.761719 65.8125 21.6875 65.8125 Z M 21.6875 65.8125 " fill-opacity="1" fill-rule="nonzero"/><g clip-path="url(#c237d0e4d0)"><path fill="#ffffff" d="M 14.046875 68.726562 C 7.03125 68.726562 1.320312 63.015625 1.320312 55.996094 C 1.320312 48.980469 7.03125 43.269531 14.046875 43.269531 C 21.066406 43.269531 26.777344 48.980469 26.777344 55.996094 C 26.773438 63.015625 21.0625 68.726562 14.046875 68.726562 Z M 14.046875 45.757812 C 8.398438 45.757812 3.804688 50.351562 3.804688 55.996094 C 3.804688 61.644531 8.398438 66.238281 14.046875 66.238281 C 19.699219 66.238281 24.289062 61.644531 24.289062 55.996094 C 24.289062 50.351562 19.695312 45.757812 14.046875 45.757812 Z M 14.046875 45.757812 " fill-opacity="1" fill-rule="nonzero"/></g><path fill="#ffffff" d="M 55.996094 101.375 C 53.023438 101.375 50.601562 98.953125 50.601562 95.980469 C 50.601562 93.003906 53.023438 90.582031 55.996094 90.582031 C 58.972656 90.582031 61.394531 93.003906 61.394531 95.980469 C 61.394531 98.953125 58.976562 101.375 55.996094 101.375 Z M 55.996094 93.066406 C 54.390625 93.066406 53.085938 94.371094 53.085938 95.976562 C 53.085938 97.582031 54.394531 98.886719 55.996094 98.886719 C 57.601562 98.886719 58.90625 97.582031 58.90625 95.976562 C 58.90625 94.371094 57.601562 93.066406 55.996094 93.066406 Z M 55.996094 93.066406 " fill-opacity="1" fill-rule="nonzero"/><path fill="#ffffff" d="M 63.636719 107.761719 C 63.046875 107.761719 62.523438 107.339844 62.414062 106.738281 C 61.859375 103.632812 59.160156 101.375 55.996094 101.375 C 52.835938 101.375 50.136719 103.632812 49.578125 106.738281 C 49.457031 107.414062 48.808594 107.863281 48.136719 107.742188 C 47.460938 107.621094 47.011719 106.972656 47.132812 106.300781 C 47.902344 102.007812 51.632812 98.890625 55.996094 98.890625 C 60.367188 98.890625 64.09375 102.007812 64.859375 106.304688 C 64.980469 106.980469 64.53125 107.628906 63.855469 107.746094 C 63.785156 107.757812 63.710938 107.761719 63.636719 107.761719 Z M 63.636719 107.761719 " fill-opacity="1" fill-rule="nonzero"/><g clip-path="url(#fedc95b9d0)"><path fill="#ffffff" d="M 55.996094 110.675781 C 48.980469 110.675781 43.269531 104.964844 43.269531 97.949219 C 43.269531 90.929688 48.980469 85.21875 55.996094 85.21875 C 63.015625 85.21875 68.726562 90.929688 68.726562 97.949219 C 68.726562 104.964844 63.015625 110.675781 55.996094 110.675781 Z M 55.996094 87.707031 C 50.351562 87.707031 45.757812 92.300781 45.757812 97.949219 C 45.757812 103.597656 50.351562 108.191406 55.996094 108.191406 C 61.644531 108.191406 66.238281 103.59375 66.238281 97.949219 C 66.238281 92.300781 61.644531 87.707031 55.996094 87.707031 Z M 55.996094 87.707031 " fill-opacity="1" fill-rule="nonzero"/></g><path fill="#ffffff" d="M 97.949219 59.421875 C 94.976562 59.421875 92.554688 57 92.554688 54.027344 C 92.554688 51.050781 94.976562 48.632812 97.949219 48.632812 C 100.925781 48.632812 103.34375 51.050781 103.34375 54.027344 C 103.34375 57 100.925781 59.421875 97.949219 59.421875 Z M 97.949219 51.113281 C 96.34375 51.113281 95.039062 52.421875 95.039062 54.023438 C 95.039062 55.628906 96.34375 56.933594 97.949219 56.933594 C 99.554688 56.933594 100.859375 55.628906 100.859375 54.023438 C 100.859375 52.421875 99.554688 51.113281 97.949219 51.113281 Z M 97.949219 51.113281 " fill-opacity="1" fill-rule="nonzero"/><path fill="#ffffff" d="M 105.585938 65.8125 C 104.996094 65.8125 104.472656 65.390625 104.363281 64.789062 C 103.808594 61.679688 101.109375 59.425781 97.949219 59.425781 C 94.785156 59.425781 92.085938 61.683594 91.527344 64.789062 C 91.40625 65.464844 90.761719 65.914062 90.085938 65.792969 C 89.410156 65.671875 88.960938 65.023438 89.082031 64.351562 C 89.851562 60.054688 93.582031 56.941406 97.949219 56.941406 C 102.316406 56.941406 106.042969 60.058594 106.808594 64.355469 C 106.933594 65.03125 106.480469 65.679688 105.804688 65.796875 C 105.734375 65.804688 105.660156 65.8125 105.585938 65.8125 Z M 105.585938 65.8125 " fill-opacity="1" fill-rule="nonzero"/><g clip-path="url(#b21442f239)"><path fill="#ffffff" d="M 97.949219 68.726562 C 90.929688 68.726562 85.21875 63.015625 85.21875 55.996094 C 85.21875 48.980469 90.929688 43.269531 97.949219 43.269531 C 104.964844 43.269531 110.675781 48.980469 110.675781 55.996094 C 110.675781 63.015625 104.964844 68.726562 97.949219 68.726562 Z M 97.949219 45.757812 C 92.300781 45.757812 87.707031 50.347656 87.707031 55.996094 C 87.707031 61.648438 92.296875 66.238281 97.949219 66.238281 C 103.597656 66.238281 108.191406 61.644531 108.191406 55.996094 C 108.191406 50.351562 103.59375 45.757812 97.949219 45.757812 Z M 97.949219 45.757812 " fill-opacity="1" fill-rule="nonzero"/></g><path fill="#ffffff" d="M 18.988281 39.632812 C 18.800781 39.632812 18.605469 39.585938 18.425781 39.496094 C 17.8125 39.183594 17.570312 38.4375 17.878906 37.824219 C 22.3125 29.121094 29.664062 22.136719 38.582031 18.152344 C 38.742188 18.078125 38.917969 18.042969 39.089844 18.042969 C 39.777344 18.042969 40.332031 18.597656 40.332031 19.285156 C 40.332031 19.808594 40.007812 20.257812 39.546875 20.441406 C 31.167969 24.199219 24.261719 30.769531 20.09375 38.949219 C 19.875 39.386719 19.441406 39.632812 18.988281 39.632812 Z M 18.988281 39.632812 " fill-opacity="1" fill-rule="nonzero"/><path fill="#ffffff" d="M 93 39.621094 C 92.5 39.621094 92.066406 39.320312 91.871094 38.890625 C 87.675781 30.695312 80.742188 24.132812 72.34375 20.398438 C 71.894531 20.210938 71.574219 19.765625 71.574219 19.25 C 71.574219 18.5625 72.128906 18.007812 72.820312 18.007812 C 72.996094 18.007812 73.167969 18.042969 73.324219 18.113281 C 82.273438 22.082031 89.65625 29.078125 94.113281 37.808594 C 94.203125 37.984375 94.25 38.179688 94.25 38.375 C 94.246094 39.058594 93.6875 39.621094 93 39.621094 Z M 93 39.621094 " fill-opacity="1" fill-rule="nonzero"/><path fill="#ffffff" d="M 37.777344 95.765625 C 37.585938 95.765625 37.398438 95.722656 37.226562 95.636719 C 28.53125 91.382812 21.464844 84.222656 17.328125 75.476562 C 17.035156 74.855469 17.300781 74.113281 17.921875 73.820312 C 18.542969 73.527344 19.28125 73.792969 19.574219 74.410156 C 23.46875 82.644531 30.113281 89.382812 38.292969 93.390625 C 38.71875 93.589844 39.019531 94.019531 39.019531 94.523438 C 39.015625 95.210938 38.460938 95.765625 37.777344 95.765625 Z M 37.777344 95.765625 " fill-opacity="1" fill-rule="nonzero"/><path fill="#ffffff" d="M 75.605469 95.058594 C 75.164062 95.058594 74.734375 94.820312 74.511719 94.402344 C 74.183594 93.800781 74.414062 93.046875 75.019531 92.722656 C 83.085938 88.390625 89.503906 81.371094 93.078125 72.957031 C 93.347656 72.328125 94.074219 72.03125 94.710938 72.300781 C 95.339844 72.566406 95.636719 73.296875 95.367188 73.929688 C 91.570312 82.863281 84.761719 90.316406 76.195312 94.910156 C 76.003906 95.011719 75.804688 95.058594 75.605469 95.058594 Z M 75.605469 95.058594 " fill-opacity="1" fill-rule="nonzero"/><path fill="#ffffff" d="M 93 39.617188 C 92.886719 39.617188 92.765625 39.601562 92.648438 39.566406 L 87.171875 37.949219 C 86.511719 37.753906 86.136719 37.066406 86.332031 36.40625 C 86.523438 35.746094 87.214844 35.371094 87.875 35.566406 L 92.285156 36.867188 L 93.941406 32.953125 C 94.210938 32.320312 94.9375 32.023438 95.570312 32.289062 C 96.199219 32.558594 96.496094 33.285156 96.230469 33.917969 L 94.140625 38.855469 C 93.949219 39.328125 93.492188 39.617188 93 39.617188 Z M 93 39.617188 " fill-opacity="1" fill-rule="nonzero"/><path fill="#ffffff" d="M 37.171875 25.566406 C 37.023438 25.566406 36.875 25.539062 36.730469 25.484375 C 36.089844 25.238281 35.765625 24.519531 36.011719 23.878906 L 37.5 19.976562 L 33.761719 18.445312 C 33.125 18.1875 32.824219 17.460938 33.082031 16.828125 C 33.34375 16.191406 34.066406 15.886719 34.703125 16.148438 L 39.566406 18.140625 C 40.1875 18.394531 40.496094 19.101562 40.257812 19.730469 L 38.335938 24.765625 C 38.144531 25.257812 37.671875 25.566406 37.171875 25.566406 Z M 37.171875 25.566406 " fill-opacity="1" fill-rule="nonzero"/><path fill="#ffffff" d="M 16.5625 81.171875 C 16.417969 81.171875 16.269531 81.148438 16.125 81.089844 C 15.480469 80.847656 15.160156 80.128906 15.398438 79.488281 L 17.285156 74.503906 C 17.527344 73.867188 18.234375 73.542969 18.875 73.773438 L 24.082031 75.675781 C 24.726562 75.910156 25.058594 76.625 24.824219 77.265625 C 24.589844 77.910156 23.875 78.242188 23.230469 78.011719 L 19.179688 76.535156 L 17.726562 80.367188 C 17.539062 80.867188 17.066406 81.171875 16.5625 81.171875 Z M 16.5625 81.171875 " fill-opacity="1" fill-rule="nonzero"/><path fill="#ffffff" d="M 80.582031 96.632812 C 80.457031 96.632812 80.332031 96.613281 80.207031 96.574219 L 75.230469 95.003906 C 74.628906 94.8125 74.265625 94.203125 74.382812 93.585938 L 75.386719 88.324219 C 75.515625 87.652344 76.164062 87.207031 76.839844 87.335938 C 77.511719 87.464844 77.957031 88.113281 77.828125 88.789062 L 77.035156 92.964844 L 80.957031 94.203125 C 81.613281 94.410156 81.972656 95.109375 81.769531 95.765625 C 81.597656 96.292969 81.109375 96.632812 80.582031 96.632812 Z M 80.582031 96.632812 " fill-opacity="1" fill-rule="nonzero"/><path fill="#ffffff" d="M 41.839844 65.636719 C 41.660156 65.636719 41.480469 65.597656 41.3125 65.523438 C 40.875 65.316406 40.597656 64.878906 40.597656 64.394531 L 40.597656 59.898438 C 36.039062 59.289062 32.515625 55.378906 32.515625 50.660156 C 32.515625 45.515625 36.699219 41.335938 41.839844 41.335938 L 55.777344 41.335938 C 60.921875 41.335938 65.101562 45.519531 65.101562 50.660156 C 65.101562 55.800781 60.917969 59.980469 55.777344 59.980469 L 49.070312 59.980469 L 42.636719 65.351562 C 42.40625 65.539062 42.125 65.636719 41.839844 65.636719 Z M 41.839844 43.820312 C 38.070312 43.820312 35 46.886719 35 50.65625 C 35 54.425781 38.070312 57.492188 41.839844 57.492188 C 42.523438 57.492188 43.082031 58.050781 43.082031 58.738281 L 43.082031 61.738281 L 47.824219 57.78125 C 48.046875 57.597656 48.328125 57.492188 48.617188 57.492188 L 55.777344 57.492188 C 59.550781 57.492188 62.617188 54.425781 62.617188 50.65625 C 62.617188 46.886719 59.550781 43.820312 55.777344 43.820312 Z M 41.839844 43.820312 " fill-opacity="1" fill-rule="nonzero"/><path fill="#ffffff" d="M 70.691406 70.660156 C 70.40625 70.660156 70.121094 70.5625 69.894531 70.371094 L 63.910156 65.378906 L 57.675781 65.378906 C 53.808594 65.378906 50.347656 62.796875 49.253906 59.09375 C 49.058594 58.433594 49.433594 57.742188 50.09375 57.546875 C 50.75 57.355469 51.441406 57.730469 51.636719 58.390625 C 52.417969 61.039062 54.902344 62.894531 57.675781 62.894531 L 64.359375 62.894531 C 64.652344 62.894531 64.933594 62.996094 65.15625 63.183594 L 69.449219 66.765625 L 69.449219 64.136719 C 69.449219 63.453125 70.003906 62.894531 70.691406 62.894531 C 72.375 62.894531 73.960938 62.238281 75.148438 61.050781 C 76.339844 59.859375 76.992188 58.28125 76.992188 56.597656 C 76.992188 53.121094 74.164062 50.292969 70.691406 50.292969 L 63.699219 50.292969 C 63.011719 50.292969 62.453125 49.738281 62.453125 49.050781 C 62.453125 48.367188 63.011719 47.808594 63.699219 47.808594 L 70.691406 47.808594 C 75.539062 47.808594 79.480469 51.75 79.480469 56.597656 C 79.480469 58.941406 78.566406 61.148438 76.90625 62.808594 C 75.542969 64.167969 73.808594 65.03125 71.933594 65.296875 L 71.933594 69.417969 C 71.933594 69.902344 71.65625 70.339844 71.21875 70.542969 C 71.050781 70.621094 70.871094 70.660156 70.691406 70.660156 Z M 70.691406 70.660156 " fill-opacity="1" fill-rule="nonzero"/><path fill="#ffffff" d="M 43.101562 51.898438 C 42.773438 51.898438 42.457031 51.769531 42.222656 51.535156 C 42.167969 51.480469 42.113281 51.414062 42.066406 51.347656 C 42.023438 51.28125 41.984375 51.207031 41.957031 51.132812 C 41.921875 51.058594 41.898438 50.980469 41.882812 50.902344 C 41.867188 50.820312 41.859375 50.738281 41.859375 50.65625 C 41.859375 50.332031 41.992188 50.011719 42.222656 49.78125 C 42.28125 49.722656 42.34375 49.671875 42.414062 49.625 C 42.480469 49.582031 42.550781 49.542969 42.625 49.511719 C 42.703125 49.480469 42.777344 49.457031 42.859375 49.4375 C 43.019531 49.40625 43.183594 49.40625 43.34375 49.4375 C 43.425781 49.457031 43.5 49.480469 43.578125 49.511719 C 43.652344 49.542969 43.726562 49.582031 43.792969 49.625 C 43.859375 49.671875 43.925781 49.722656 43.980469 49.78125 C 44.210938 50.011719 44.34375 50.332031 44.34375 50.65625 C 44.34375 50.738281 44.335938 50.820312 44.320312 50.902344 C 44.304688 50.980469 44.28125 51.058594 44.25 51.132812 C 44.21875 51.207031 44.179688 51.28125 44.136719 51.347656 C 44.089844 51.414062 44.039062 51.480469 43.980469 51.535156 C 43.925781 51.59375 43.859375 51.644531 43.792969 51.691406 C 43.726562 51.734375 43.652344 51.773438 43.578125 51.804688 C 43.5 51.835938 43.425781 51.859375 43.34375 51.878906 C 43.265625 51.890625 43.183594 51.898438 43.101562 51.898438 Z M 43.101562 51.898438 " fill-opacity="1" fill-rule="nonzero"/><path fill="#ffffff" d="M 48.808594 51.898438 C 48.726562 51.898438 48.644531 51.890625 48.566406 51.878906 C 48.488281 51.859375 48.40625 51.835938 48.332031 51.804688 C 48.257812 51.773438 48.1875 51.734375 48.121094 51.691406 C 48.050781 51.644531 47.988281 51.59375 47.929688 51.535156 C 47.875 51.480469 47.820312 51.414062 47.777344 51.347656 C 47.730469 51.28125 47.691406 51.207031 47.664062 51.132812 C 47.628906 51.058594 47.609375 50.980469 47.589844 50.902344 C 47.574219 50.820312 47.566406 50.738281 47.566406 50.65625 C 47.566406 50.332031 47.699219 50.011719 47.929688 49.78125 C 47.988281 49.722656 48.050781 49.671875 48.121094 49.625 C 48.1875 49.582031 48.257812 49.542969 48.332031 49.511719 C 48.40625 49.480469 48.488281 49.457031 48.566406 49.4375 C 48.96875 49.359375 49.398438 49.492188 49.6875 49.78125 C 49.917969 50.011719 50.050781 50.332031 50.050781 50.65625 C 50.050781 50.738281 50.042969 50.820312 50.027344 50.902344 C 50.011719 50.980469 49.988281 51.058594 49.957031 51.132812 C 49.925781 51.207031 49.886719 51.28125 49.839844 51.347656 C 49.796875 51.414062 49.746094 51.480469 49.6875 51.535156 C 49.457031 51.769531 49.136719 51.898438 48.808594 51.898438 Z M 48.808594 51.898438 " fill-opacity="1" fill-rule="nonzero"/><path fill="#ffffff" d="M 54.515625 51.898438 C 54.433594 51.898438 54.351562 51.890625 54.273438 51.878906 C 54.195312 51.859375 54.117188 51.835938 54.039062 51.804688 C 53.964844 51.773438 53.894531 51.734375 53.824219 51.691406 C 53.757812 51.644531 53.695312 51.59375 53.636719 51.535156 C 53.40625 51.304688 53.273438 50.984375 53.273438 50.65625 C 53.273438 50.578125 53.28125 50.496094 53.296875 50.414062 C 53.3125 50.335938 53.339844 50.257812 53.367188 50.183594 C 53.402344 50.109375 53.4375 50.035156 53.484375 49.96875 C 53.527344 49.902344 53.578125 49.835938 53.636719 49.78125 C 53.695312 49.722656 53.757812 49.671875 53.824219 49.625 C 53.894531 49.582031 53.964844 49.542969 54.039062 49.511719 C 54.117188 49.480469 54.195312 49.457031 54.273438 49.4375 C 54.433594 49.40625 54.597656 49.40625 54.761719 49.4375 C 54.835938 49.457031 54.917969 49.480469 54.992188 49.511719 C 55.066406 49.542969 55.136719 49.582031 55.203125 49.625 C 55.273438 49.671875 55.335938 49.722656 55.394531 49.78125 C 55.449219 49.835938 55.503906 49.902344 55.546875 49.96875 C 55.59375 50.035156 55.632812 50.109375 55.664062 50.183594 C 55.695312 50.257812 55.71875 50.335938 55.734375 50.414062 C 55.75 50.496094 55.757812 50.578125 55.757812 50.65625 C 55.757812 50.984375 55.625 51.304688 55.394531 51.535156 C 55.335938 51.59375 55.273438 51.644531 55.203125 51.691406 C 55.136719 51.734375 55.066406 51.773438 54.992188 51.804688 C 54.917969 51.835938 54.835938 51.859375 54.761719 51.878906 C 54.679688 51.890625 54.597656 51.898438 54.515625 51.898438 Z M 54.515625 51.898438 " fill-opacity="1" fill-rule="nonzero"/></svg>