<svg xmlns="http://www.w3.org/2000/svg" xmlns:xlink="http://www.w3.org/1999/xlink" width="1080" zoomAndPan="magnify" viewBox="0 0 810 809.999993" height="1080" preserveAspectRatio="xMidYMid meet" version="1.0"><defs><clipPath id="355d0de749"><path d="M 23 24.140625 L 789 24.140625 L 789 786 L 23 786 Z M 23 24.140625 " clip-rule="nonzero"/></clipPath></defs><path fill="#ffffff" d="M 99.550781 457.273438 C 126.898438 457.273438 335.078125 457.273438 361.703125 457.273438 C 367.867188 474.65625 384.46875 487.144531 403.941406 487.144531 C 423.414062 487.144531 440.015625 474.65625 446.179688 457.273438 C 462.332031 457.273438 721.929688 457.273438 708.328125 457.273438 C 716.816406 457.273438 723.371094 450.191406 723.265625 442.1875 C 722.421875 357.570312 688.832031 278.152344 628.683594 218.566406 C 504.164062 95.214844 303.753906 95.175781 179.203125 218.566406 C 119.050781 278.152344 85.460938 357.570312 84.617188 442.1875 C 84.519531 450.386719 91.21875 457.273438 99.550781 457.273438 Z M 389.003906 400.101562 C 376.296875 404.605469 366.210938 414.691406 361.703125 427.402344 L 323.34375 427.402344 C 329.851562 394.582031 356.085938 368.671875 389.003906 362.554688 Z M 403.941406 457.273438 C 395.707031 457.273438 389.003906 450.574219 389.003906 442.335938 C 389.003906 434.101562 395.707031 427.402344 403.941406 427.402344 C 412.175781 427.402344 418.875 434.101562 418.875 442.335938 C 418.875 450.574219 412.175781 457.273438 403.941406 457.273438 Z M 446.179688 427.402344 C 441.671875 414.691406 431.585938 404.605469 418.875 400.101562 L 418.875 362.554688 C 451.796875 368.671875 478.03125 394.582031 484.535156 427.402344 Z M 208.390625 232.527344 L 219.691406 245.992188 C 232.105469 260.792969 255.402344 242.082031 242.570312 226.792969 L 231.375 213.445312 C 250.019531 199.523438 270.375 187.78125 292.058594 178.617188 L 297.953125 194.816406 C 304.714844 213.402344 332.777344 203.15625 326.023438 184.601562 L 320.140625 168.441406 C 342.132812 161.738281 365.199219 157.589844 389.003906 156.363281 L 389.003906 173.496094 C 389.003906 181.742188 395.6875 188.429688 403.9375 188.429688 C 412.1875 188.429688 418.875 181.742188 418.875 173.496094 L 418.875 156.363281 C 442.675781 157.585938 465.746094 161.738281 487.734375 168.441406 L 481.851562 184.601562 C 475.105469 203.136719 503.148438 213.421875 509.921875 194.816406 L 515.816406 178.613281 C 537.5 187.777344 557.855469 199.519531 576.503906 213.445312 L 565.304688 226.792969 C 552.515625 242.027344 575.703125 260.878906 588.1875 245.992188 L 599.488281 232.523438 C 616.734375 248.382812 632.070312 266.289062 645.09375 285.855469 L 629.292969 294.980469 C 622.148438 299.105469 619.699219 308.238281 623.824219 315.382812 C 627.960938 322.542969 637.101562 324.964844 644.226562 320.847656 L 660.355469 311.535156 C 678.800781 346.59375 690.261719 385.835938 692.84375 427.398438 L 514.796875 427.398438 C 507.710938 378.113281 468.230469 338.996094 418.875 332.335938 L 418.875 259.375 C 418.875 251.125 412.1875 244.441406 403.941406 244.441406 C 395.691406 244.441406 389.003906 251.125 389.003906 259.375 L 389.003906 332.339844 C 339.652344 338.996094 300.171875 378.117188 293.085938 427.402344 L 115.035156 427.402344 C 117.613281 385.839844 129.074219 346.59375 147.519531 311.539062 L 163.648438 320.851562 C 170.78125 324.96875 179.917969 322.542969 184.050781 315.382812 C 188.175781 308.242188 185.726562 299.109375 178.585938 294.984375 L 162.78125 285.859375 C 175.808594 266.292969 191.140625 248.382812 208.390625 232.527344 Z M 208.390625 232.527344 " fill-opacity="1" fill-rule="nonzero"/><path fill="#ffffff" d="M 87.199219 139.25 L 117.070312 169.121094 C 122.90625 174.953125 132.359375 174.953125 138.195312 169.121094 C 144.027344 163.289062 144.027344 153.832031 138.195312 147.996094 L 133.820312 143.625 L 157.503906 143.625 C 165.75 143.625 172.4375 136.9375 172.4375 128.6875 C 172.4375 120.441406 165.75 113.753906 157.503906 113.753906 L 133.820312 113.753906 L 138.195312 109.378906 C 144.027344 103.546875 144.027344 94.089844 138.195312 88.253906 C 132.359375 82.425781 122.90625 82.425781 117.070312 88.253906 L 87.199219 118.125 C 81.464844 123.859375 81.316406 133.367188 87.199219 139.25 Z M 87.199219 139.25 " fill-opacity="1" fill-rule="nonzero"/><path fill="#ffffff" d="M 650.378906 143.625 L 674.0625 143.625 L 669.6875 148 C 660.25 157.4375 667.0625 173.496094 680.25 173.496094 C 684.074219 173.496094 687.894531 172.035156 690.808594 169.121094 L 720.683594 139.25 C 726.582031 133.351562 726.394531 123.84375 720.683594 118.125 L 690.808594 88.253906 C 684.976562 82.425781 675.523438 82.425781 669.6875 88.253906 C 663.855469 94.085938 663.855469 103.542969 669.6875 109.378906 L 674.0625 113.753906 L 650.378906 113.753906 C 642.128906 113.753906 635.445312 120.441406 635.445312 128.6875 C 635.445312 136.9375 642.128906 143.625 650.378906 143.625 Z M 650.378906 143.625 " fill-opacity="1" fill-rule="nonzero"/><path fill="#ffffff" d="M 725.058594 591.695312 C 725.058594 592.675781 724.960938 593.644531 724.769531 594.609375 C 724.578125 595.570312 724.296875 596.503906 723.921875 597.410156 C 723.546875 598.316406 723.085938 599.175781 722.539062 599.992188 C 721.996094 600.808594 721.375 601.5625 720.683594 602.253906 C 719.988281 602.949219 719.234375 603.566406 718.421875 604.113281 C 717.605469 604.65625 716.742188 605.117188 715.835938 605.492188 C 714.933594 605.867188 713.996094 606.152344 713.035156 606.34375 C 712.074219 606.535156 711.101562 606.628906 710.121094 606.628906 C 709.140625 606.628906 708.171875 606.535156 707.207031 606.34375 C 706.246094 606.152344 705.3125 605.867188 704.40625 605.492188 C 703.5 605.117188 702.640625 604.65625 701.824219 604.113281 C 701.007812 603.566406 700.253906 602.949219 699.5625 602.253906 C 698.867188 601.5625 698.25 600.808594 697.703125 599.992188 C 697.160156 599.175781 696.699219 598.316406 696.324219 597.410156 C 695.949219 596.503906 695.664062 595.570312 695.472656 594.609375 C 695.28125 593.644531 695.1875 592.675781 695.1875 591.695312 C 695.1875 590.714844 695.28125 589.742188 695.472656 588.78125 C 695.664062 587.820312 695.949219 586.882812 696.324219 585.980469 C 696.699219 585.074219 697.160156 584.210938 697.703125 583.394531 C 698.25 582.582031 698.867188 581.828125 699.5625 581.132812 C 700.253906 580.441406 701.007812 579.820312 701.824219 579.277344 C 702.640625 578.730469 703.5 578.269531 704.40625 577.894531 C 705.3125 577.519531 706.246094 577.238281 707.207031 577.046875 C 708.171875 576.855469 709.140625 576.757812 710.121094 576.757812 C 711.101562 576.757812 712.074219 576.855469 713.035156 577.046875 C 713.996094 577.238281 714.933594 577.519531 715.835938 577.894531 C 716.742188 578.269531 717.605469 578.730469 718.421875 579.277344 C 719.234375 579.820312 719.988281 580.441406 720.683594 581.132812 C 721.375 581.828125 721.996094 582.582031 722.539062 583.394531 C 723.085938 584.210938 723.546875 585.074219 723.921875 585.980469 C 724.296875 586.882812 724.578125 587.820312 724.769531 588.78125 C 724.960938 589.742188 725.058594 590.714844 725.058594 591.695312 Z M 725.058594 591.695312 " fill-opacity="1" fill-rule="nonzero"/><path fill="#ffffff" d="M 650.378906 576.757812 L 635.445312 576.757812 C 627.195312 576.757812 620.507812 583.445312 620.507812 591.695312 C 620.507812 599.941406 627.195312 606.628906 635.445312 606.628906 L 650.378906 606.628906 C 658.628906 606.628906 665.316406 599.941406 665.316406 591.695312 C 665.316406 583.445312 658.628906 576.757812 650.378906 576.757812 Z M 650.378906 576.757812 " fill-opacity="1" fill-rule="nonzero"/><path fill="#ffffff" d="M 575.703125 576.757812 L 560.765625 576.757812 C 552.515625 576.757812 545.828125 583.445312 545.828125 591.695312 C 545.828125 599.941406 552.515625 606.628906 560.765625 606.628906 L 575.703125 606.628906 C 583.949219 606.628906 590.636719 599.941406 590.636719 591.695312 C 590.636719 583.445312 583.949219 576.757812 575.703125 576.757812 Z M 575.703125 576.757812 " fill-opacity="1" fill-rule="nonzero"/><g clip-path="url(#355d0de749)"><path fill="#ffffff" d="M 702.773438 24.140625 L 105.109375 24.140625 C 59.878906 24.140625 23.082031 60.9375 23.082031 106.164062 L 23.082031 584.347656 C 23.082031 629.574219 59.878906 666.371094 105.109375 666.371094 L 329.261719 666.371094 L 329.261719 696.242188 L 314.328125 696.242188 C 273.148438 696.242188 239.648438 729.746094 239.648438 770.921875 C 239.648438 779.167969 246.335938 785.859375 254.585938 785.859375 L 553.296875 785.859375 C 561.546875 785.859375 568.234375 779.167969 568.234375 770.921875 C 568.234375 729.746094 534.734375 696.242188 493.554688 696.242188 L 478.621094 696.242188 L 478.621094 666.371094 L 702.773438 666.371094 C 748.003906 666.371094 784.800781 629.574219 784.800781 584.347656 C 761.796875 234.09375 844.175781 24.140625 702.773438 24.140625 Z M 105.109375 54.011719 L 702.773438 54.011719 C 731.53125 54.011719 754.929688 77.40625 754.929688 106.164062 L 754.929688 517.015625 L 52.953125 517.015625 L 52.953125 106.164062 C 52.953125 77.40625 76.351562 54.011719 105.109375 54.011719 Z M 535.800781 755.988281 L 272.082031 755.988281 C 278.246094 738.601562 294.855469 726.117188 314.328125 726.117188 L 493.554688 726.117188 C 513.027344 726.117188 529.636719 738.601562 535.800781 755.988281 Z M 448.75 696.242188 L 359.132812 696.242188 L 359.132812 666.371094 L 448.75 666.371094 Z M 702.773438 636.5 L 105.109375 636.5 C 76.351562 636.5 52.953125 613.105469 52.953125 584.347656 L 52.953125 546.886719 L 754.929688 546.886719 L 754.929688 584.347656 C 754.929688 613.105469 731.53125 636.5 702.773438 636.5 Z M 702.773438 636.5 " fill-opacity="1" fill-rule="nonzero"/></g></svg>