<svg xmlns="http://www.w3.org/2000/svg" xmlns:xlink="http://www.w3.org/1999/xlink" width="150" zoomAndPan="magnify" viewBox="0 0 112.5 112.499997" height="150" preserveAspectRatio="xMidYMid meet" version="1.0"><path fill="#ffffff" d="M 78.308594 68.5625 C 79.296875 69.128906 80.5625 68.789062 81.128906 67.800781 C 81.695312 66.8125 81.355469 65.554688 80.375 64.992188 L 62.429688 54.628906 L 62.429688 31.855469 C 62.429688 30.714844 61.503906 29.792969 60.363281 29.792969 C 59.222656 29.792969 58.300781 30.714844 58.300781 31.855469 L 58.300781 57.015625 L 78.308594 68.5625 " fill-opacity="1" fill-rule="nonzero"/><path fill="#ffffff" d="M 37.40625 56.097656 L 23.535156 56.097656 C 23.535156 35.621094 40.140625 19.015625 60.621094 19.015625 C 81.097656 19.015625 97.703125 35.621094 97.703125 56.097656 C 97.703125 76.578125 81.097656 93.183594 60.621094 93.183594 C 56.519531 93.183594 52.445312 92.503906 48.558594 91.164062 C 46.34375 90.402344 43.921875 91.582031 43.15625 93.804688 C 42.394531 96.023438 43.582031 98.445312 45.796875 99.207031 C 69.605469 107.394531 95.542969 94.730469 103.730469 70.921875 C 111.914062 47.113281 99.257812 21.183594 75.453125 12.988281 C 51.644531 4.804688 25.703125 17.46875 17.519531 41.277344 C 15.878906 46.046875 15.039062 51.054688 15.039062 56.097656 L 1.167969 56.097656 C 0.519531 56.097656 0 56.617188 0 57.269531 C 0 57.5625 0.113281 57.84375 0.3125 58.058594 L 18.433594 77.617188 C 18.867188 78.085938 19.613281 78.117188 20.082031 77.671875 C 20.101562 77.652344 20.121094 77.636719 20.140625 77.617188 L 38.261719 58.058594 C 38.707031 57.589844 38.679688 56.84375 38.207031 56.410156 C 37.988281 56.210938 37.707031 56.097656 37.40625 56.097656 " fill-opacity="1" fill-rule="nonzero"/></svg>