<svg xmlns="http://www.w3.org/2000/svg" xmlns:xlink="http://www.w3.org/1999/xlink" width="150" zoomAndPan="magnify" viewBox="0 0 112.5 112.499997" height="150" preserveAspectRatio="xMidYMid meet" version="1.0"><defs><clipPath id="ea8d324fd3"><path d="M 11.007812 2.042969 L 101 2.042969 L 101 109.566406 L 11.007812 109.566406 Z M 11.007812 2.042969 " clip-rule="nonzero"/></clipPath></defs><g clip-path="url(#ea8d324fd3)"><path fill="#ffffff" d="M 55.933594 2.042969 C 31.21875 2.042969 11.167969 22.078125 11.167969 46.8125 C 11.167969 59.167969 16.175781 70.355469 24.28125 78.460938 L 55.933594 109.484375 L 87.59375 78.457031 C 95.699219 70.359375 100.707031 59.167969 100.699219 46.804688 C 100.699219 22.097656 80.660156 2.042969 55.933594 2.042969 Z M 81.265625 72.113281 L 55.933594 96.945312 L 30.550781 72.0625 C 23.84375 65.367188 20.117188 56.375 20.117188 46.8125 C 20.117188 27.066406 36.183594 11 55.933594 11 C 65.496094 11 74.496094 14.726562 81.257812 21.492188 C 88.019531 28.257812 91.746094 37.246094 91.746094 46.804688 C 91.753906 56.375 88.027344 65.359375 81.265625 72.113281 Z M 81.265625 72.113281 " fill-opacity="1" fill-rule="nonzero"/></g><path fill="#ffffff" d="M 55.933594 24.429688 L 33.550781 46.8125 L 40.265625 46.8125 L 40.265625 64.71875 L 51.457031 64.71875 L 51.457031 51.289062 L 60.410156 51.289062 L 60.410156 64.71875 L 71.601562 64.71875 L 71.601562 46.8125 L 78.316406 46.8125 Z M 55.933594 24.429688 " fill-opacity="1" fill-rule="nonzero"/></svg>