<svg xmlns="http://www.w3.org/2000/svg" xmlns:xlink="http://www.w3.org/1999/xlink" width="150" zoomAndPan="magnify" viewBox="0 0 112.5 112.499997" height="150" preserveAspectRatio="xMidYMid meet" version="1.0"><defs><clipPath id="b42a02f0b4"><path d="M 0 9.300781 L 87 9.300781 L 87 90 L 0 90 Z M 0 9.300781 " clip-rule="nonzero"/></clipPath><clipPath id="97f9b4dc39"><path d="M 33 26 L 110.507812 26 L 110.507812 106.371094 L 33 106.371094 Z M 33 26 " clip-rule="nonzero"/></clipPath></defs><g clip-path="url(#b42a02f0b4)"><path fill="#ffffff" d="M 86.136719 37.734375 C 86.136719 22.070312 73.402344 9.324219 57.75 9.324219 L 28.386719 9.324219 C 12.734375 9.324219 0 22.070312 0 37.734375 L 0 45.496094 C 0 57.714844 7.765625 68.535156 19.320312 72.414062 L 20.457031 72.796875 L 19.855469 73.832031 C 18.316406 76.496094 16.222656 80.675781 13.457031 86.613281 C 13.125 87.324219 13.273438 88.175781 13.828125 88.734375 C 14.378906 89.285156 15.253906 89.441406 15.941406 89.121094 L 49.203125 73.90625 L 57.75 73.90625 C 73.402344 73.90625 86.136719 61.160156 86.136719 45.496094 Z M 82.367188 45.496094 C 82.367188 59.085938 71.324219 70.140625 57.75 70.140625 L 48.792969 70.140625 C 48.523438 70.140625 48.253906 70.199219 48.007812 70.3125 L 19.082031 83.546875 L 20.332031 81.054688 C 21.476562 78.78125 23.546875 74.773438 24.539062 73.476562 L 24.652344 73.332031 L 24.808594 73.234375 C 25.304688 72.9375 25.628906 72.4375 25.703125 71.863281 C 25.828125 70.863281 25.152344 69.941406 24.160156 69.765625 C 12.34375 67.699219 3.765625 57.492188 3.765625 45.496094 L 3.765625 37.734375 C 3.765625 24.144531 14.808594 13.089844 28.386719 13.089844 L 57.75 13.089844 C 71.324219 13.089844 82.367188 24.144531 82.367188 37.734375 Z M 82.367188 45.496094 " fill-opacity="1" fill-rule="nonzero"/></g><g clip-path="url(#97f9b4dc39)"><path fill="#ffffff" d="M 86.695312 26.671875 C 87.207031 28.007812 87.628906 29.394531 87.953125 30.8125 C 98.617188 33.515625 106.542969 43.160156 106.542969 54.664062 L 106.542969 62.421875 C 106.542969 74.417969 97.964844 84.628906 86.152344 86.695312 C 85.15625 86.871094 84.480469 87.792969 84.609375 88.792969 C 84.679688 89.367188 85.007812 89.863281 85.5 90.164062 L 85.660156 90.257812 L 85.769531 90.40625 C 86.765625 91.703125 88.832031 95.710938 89.976562 97.984375 L 91.230469 100.472656 L 62.300781 87.242188 C 62.058594 87.128906 61.785156 87.070312 61.519531 87.070312 L 52.558594 87.070312 C 46.976562 87.070312 41.84375 85.175781 37.714844 82.027344 L 33.875 83.78125 C 38.871094 88.167969 45.410156 90.835938 52.5625 90.835938 L 61.109375 90.835938 L 94.367188 106.050781 C 95.058594 106.367188 95.933594 106.214844 96.484375 105.664062 C 97.035156 105.105469 97.1875 104.253906 96.851562 103.542969 C 94.089844 97.601562 91.996094 93.421875 90.453125 90.761719 L 89.851562 89.726562 L 90.988281 89.34375 C 102.546875 85.464844 110.308594 74.644531 110.308594 62.421875 L 110.308594 54.664062 C 110.308594 40.625 100.082031 28.949219 86.695312 26.671875 Z M 86.695312 26.671875 " fill-opacity="1" fill-rule="nonzero"/></g><path fill="#ffffff" d="M 20.878906 36.917969 C 17.929688 36.917969 15.527344 39.320312 15.527344 42.269531 C 15.527344 45.21875 17.929688 47.621094 20.878906 47.621094 C 23.828125 47.621094 26.230469 45.21875 26.230469 42.269531 C 26.230469 39.320312 23.828125 36.917969 20.878906 36.917969 Z M 20.878906 36.917969 " fill-opacity="1" fill-rule="nonzero"/><path fill="#ffffff" d="M 65.257812 36.917969 C 62.304688 36.917969 59.90625 39.320312 59.90625 42.269531 C 59.90625 45.21875 62.304688 47.621094 65.257812 47.621094 C 68.207031 47.621094 70.605469 45.21875 70.605469 42.269531 C 70.605469 39.320312 68.207031 36.917969 65.257812 36.917969 Z M 65.257812 36.917969 " fill-opacity="1" fill-rule="nonzero"/><path fill="#ffffff" d="M 43.066406 36.917969 C 40.117188 36.917969 37.71875 39.320312 37.71875 42.269531 C 37.71875 45.21875 40.117188 47.621094 43.066406 47.621094 C 46.019531 47.621094 48.417969 45.21875 48.417969 42.269531 C 48.417969 39.320312 46.019531 36.917969 43.066406 36.917969 Z M 43.066406 36.917969 " fill-opacity="1" fill-rule="nonzero"/></svg>