<svg xmlns="http://www.w3.org/2000/svg" xmlns:xlink="http://www.w3.org/1999/xlink" width="150" zoomAndPan="magnify" viewBox="0 0 112.5 112.499997" height="150" preserveAspectRatio="xMidYMid meet" version="1.0"><defs><clipPath id="69f4a309a9"><path d="M 46.683594 92.785156 L 65.671875 92.785156 L 65.671875 100.773438 L 46.683594 100.773438 Z M 46.683594 92.785156 " clip-rule="nonzero"/></clipPath><clipPath id="3853c4f79e"><path d="M 47 11.199219 L 66 11.199219 L 66 21 L 47 21 Z M 47 11.199219 " clip-rule="nonzero"/></clipPath><clipPath id="c9ec28aeb7"><path d="M 0.863281 30 L 14 30 L 14 74 L 0.863281 74 Z M 0.863281 30 " clip-rule="nonzero"/></clipPath><clipPath id="9f8a90b091"><path d="M 99.730469 30.789062 L 111.371094 30.789062 L 111.371094 70.953125 L 99.730469 70.953125 Z M 99.730469 30.789062 " clip-rule="nonzero"/></clipPath></defs><g clip-path="url(#69f4a309a9)"><path fill="#000000" d="M 62.230469 92.878906 L 46.855469 92.878906 C 47.613281 97.351562 51.523438 100.773438 56.21875 100.773438 C 60.914062 100.773438 64.824219 97.351562 65.578125 92.878906 L 62.230469 92.878906 " fill-opacity="1" fill-rule="nonzero"/></g><g clip-path="url(#3853c4f79e)"><path fill="#000000" d="M 50.707031 19.488281 C 52.492188 19.121094 54.335938 18.925781 56.21875 18.925781 C 58.101562 18.925781 59.945312 19.121094 61.726562 19.488281 C 62.300781 19.605469 62.871094 19.738281 63.433594 19.890625 C 63.996094 20.042969 64.550781 20.21875 65.097656 20.40625 C 64.996094 15.324219 61.054688 11.222656 56.21875 11.222656 C 51.382812 11.222656 47.4375 15.324219 47.335938 20.40625 C 47.886719 20.21875 48.441406 20.042969 49.003906 19.890625 C 49.566406 19.738281 50.132812 19.605469 50.707031 19.488281 " fill-opacity="1" fill-rule="nonzero"/></g><path fill="#000000" d="M 89.199219 80.527344 C 87.027344 78.480469 84.78125 76.363281 82.972656 73.453125 C 80.046875 68.730469 81.855469 51.339844 81.910156 50.851562 L 81.890625 50.71875 L 81.894531 50.574219 C 81.902344 50.253906 81.910156 49.960938 81.910156 49.671875 C 81.910156 37.792969 74.820312 27.652344 64.933594 23.828125 C 64.398438 23.621094 63.855469 23.433594 63.308594 23.265625 C 62.769531 23.097656 62.226562 22.953125 61.671875 22.824219 C 59.914062 22.417969 58.089844 22.199219 56.21875 22.199219 C 54.347656 22.199219 52.523438 22.417969 50.761719 22.824219 C 50.210938 22.953125 49.667969 23.097656 49.128906 23.265625 C 48.578125 23.433594 48.039062 23.621094 47.503906 23.828125 C 37.613281 27.652344 30.527344 37.792969 30.527344 49.671875 C 30.527344 49.960938 30.53125 50.253906 30.542969 50.574219 L 30.546875 50.71875 L 30.527344 50.851562 C 30.582031 51.367188 32.390625 68.734375 29.464844 73.453125 C 27.65625 76.363281 25.410156 78.480469 23.238281 80.527344 C 22.160156 81.542969 20.917969 83.558594 20.078125 85.660156 C 19.253906 87.734375 19.128906 89.070312 19.207031 89.605469 L 93.402344 89.605469 C 93.496094 89.132812 93.386719 87.800781 92.476562 85.660156 C 91.597656 83.585938 90.308594 81.574219 89.199219 80.527344 " fill-opacity="1" fill-rule="nonzero"/><path fill="#000000" d="M 20.890625 65.507812 C 22.109375 64.644531 22.390625 62.957031 21.523438 61.742188 C 19.320312 58.65625 18.152344 55.011719 18.152344 51.203125 C 18.152344 47.570312 19.222656 44.066406 21.242188 41.070312 C 22.074219 39.832031 21.746094 38.152344 20.507812 37.320312 C 19.265625 36.488281 17.585938 36.820312 16.75 38.054688 C 14.128906 41.949219 12.742188 46.496094 12.742188 51.203125 C 12.742188 56.140625 14.253906 60.867188 17.117188 64.875 C 17.644531 65.617188 18.476562 66.011719 19.324219 66.011719 C 19.867188 66.011719 20.414062 65.847656 20.890625 65.507812 " fill-opacity="1" fill-rule="nonzero"/><g clip-path="url(#c9ec28aeb7)"><path fill="#000000" d="M 7.421875 51.203125 C 7.421875 45.605469 9.027344 40.175781 12.0625 35.503906 C 13.046875 33.984375 12.613281 31.957031 11.09375 30.976562 C 9.574219 29.992188 7.542969 30.425781 6.558594 31.941406 C 2.832031 37.675781 0.863281 44.335938 0.863281 51.203125 C 0.863281 58.757812 3.210938 65.96875 7.65625 72.058594 C 8.296875 72.9375 9.296875 73.40625 10.308594 73.40625 C 10.976562 73.40625 11.652344 73.199219 12.238281 72.777344 C 13.699219 71.710938 14.023438 69.664062 12.957031 68.203125 C 9.335938 63.242188 7.421875 57.363281 7.421875 51.203125 " fill-opacity="1" fill-rule="nonzero"/></g><path fill="#000000" d="M 91.53125 37.074219 C 90.304688 37.925781 90 39.609375 90.851562 40.832031 C 92.96875 43.878906 94.089844 47.460938 94.089844 51.1875 C 94.089844 54.804688 93.027344 58.300781 91.019531 61.292969 C 90.1875 62.53125 90.519531 64.207031 91.761719 65.035156 C 92.222656 65.347656 92.746094 65.492188 93.265625 65.492188 C 94.136719 65.492188 94.992188 65.074219 95.515625 64.296875 C 98.121094 60.414062 99.5 55.878906 99.5 51.1875 C 99.5 46.355469 98.046875 41.710938 95.296875 37.753906 C 94.445312 36.53125 92.757812 36.226562 91.53125 37.074219 " fill-opacity="1" fill-rule="nonzero"/><g clip-path="url(#9f8a90b091)"><path fill="#000000" d="M 105.996094 32.410156 C 105.035156 30.878906 103.011719 30.414062 101.476562 31.371094 C 99.9375 32.328125 99.472656 34.347656 100.433594 35.882812 C 103.304688 40.460938 104.820312 45.753906 104.820312 51.1875 C 104.820312 56.351562 103.441406 61.417969 100.828125 65.839844 C 99.910156 67.398438 100.429688 69.40625 101.988281 70.320312 C 102.511719 70.628906 103.085938 70.777344 103.652344 70.777344 C 104.777344 70.777344 105.867188 70.199219 106.480469 69.164062 C 109.6875 63.738281 111.378906 57.519531 111.378906 51.1875 C 111.378906 44.523438 109.519531 38.03125 105.996094 32.410156 " fill-opacity="1" fill-rule="nonzero"/></g></svg>