<svg xmlns="http://www.w3.org/2000/svg" xmlns:xlink="http://www.w3.org/1999/xlink" width="150" zoomAndPan="magnify" viewBox="0 0 112.5 112.499997" height="150" preserveAspectRatio="xMidYMid meet" version="1.0"><defs><clipPath id="fb9d5a3d9b"><path d="M 2 2.589844 L 109 2.589844 L 109 109.363281 L 2 109.363281 Z M 2 2.589844 " clip-rule="nonzero"/></clipPath></defs><g clip-path="url(#fb9d5a3d9b)"><path fill="#ffffff" d="M 18.960938 75.609375 C 28.695312 72.898438 36.738281 72.839844 50.929688 82.164062 L 69.839844 78.058594 C 72.753906 77.414062 74.414062 78.261719 75.460938 79.601562 C 76.132812 80.445312 76.335938 81.464844 76.105469 82.542969 C 75.871094 83.621094 75.230469 84.4375 74.238281 84.933594 L 53.898438 95.21875 C 52.0625 96.414062 53.316406 98.394531 54.804688 97.726562 L 78.085938 86.011719 C 79.074219 85.515625 79.773438 84.816406 80.242188 83.828125 C 80.765625 82.75 81.523438 81.875 82.542969 81.144531 L 101.425781 67.917969 C 106.234375 64.566406 109.992188 69.226562 108.476562 70.917969 L 85.429688 94.289062 L 60.804688 106.933594 C 57.542969 108.625 54.335938 109.207031 50.695312 108.796875 L 19.339844 105.242188 C 18.148438 105.097656 17.242188 104.105469 17.242188 102.882812 L 17.242188 77.882812 C 17.242188 76.804688 17.914062 75.902344 18.960938 75.609375 Z M 34.550781 39.738281 C 54.890625 33.066406 70.507812 33.066406 90.847656 39.738281 C 92.042969 40.148438 92.917969 41.515625 92.917969 42.769531 L 92.917969 68.265625 C 92.917969 68.847656 92.65625 69.316406 92.1875 69.636719 L 80.824219 77.589844 C 80.09375 78.117188 79.105469 77.96875 78.550781 77.242188 C 78.550781 77.242188 78.523438 77.210938 78.523438 77.210938 C 76.160156 74.152344 72.636719 73.453125 69.023438 74.238281 L 52.328125 77.882812 C 51.890625 77.96875 51.480469 77.882812 51.101562 77.648438 C 45.683594 74.269531 40.03125 71.558594 33.910156 70.539062 C 33.09375 70.421875 32.511719 69.722656 32.511719 68.90625 L 32.511719 42.769531 C 32.511719 41.515625 33.355469 40.148438 34.550781 39.738281 Z M 62.699219 54.660156 C 65.90625 54.660156 68.46875 57.574219 68.46875 60.429688 C 68.46875 63.019531 67.128906 64.769531 65.175781 65.644531 L 65.175781 70.335938 C 65.175781 70.890625 64.738281 71.324219 64.1875 71.324219 L 61.214844 71.324219 C 60.6875 71.324219 60.222656 70.890625 60.222656 70.335938 L 60.222656 65.644531 C 58.269531 64.769531 56.929688 63.019531 56.929688 60.429688 C 56.929688 57.574219 59.523438 54.660156 62.699219 54.660156 Z M 62.699219 2.589844 C 69.109375 2.589844 74.910156 5.210938 79.132812 9.40625 C 83.328125 13.632812 85.953125 19.429688 85.953125 25.839844 L 85.953125 32.804688 C 85.953125 33.269531 85.75 33.707031 85.371094 34 C 84.992188 34.289062 84.523438 34.378906 84.058594 34.261719 C 82.425781 33.824219 80.824219 33.445312 79.222656 33.097656 C 78.523438 32.949219 78.027344 32.339844 78.027344 31.609375 L 78.027344 25.839844 C 78.027344 21.617188 76.308594 17.796875 73.539062 15 C 70.742188 12.234375 66.925781 10.515625 62.699219 10.515625 C 58.503906 10.515625 54.65625 12.234375 51.890625 15 C 49.09375 17.796875 47.371094 21.617188 47.371094 25.839844 L 47.371094 31.609375 C 47.371094 32.339844 46.878906 32.949219 46.179688 33.097656 C 44.605469 33.445312 42.972656 33.824219 41.339844 34.261719 C 40.875 34.378906 40.4375 34.289062 40.058594 34 C 39.652344 33.707031 39.449219 33.269531 39.449219 32.804688 L 39.449219 25.839844 C 39.449219 19.429688 42.070312 13.632812 46.292969 9.40625 C 50.492188 5.210938 56.320312 2.589844 62.699219 2.589844 Z M 4.363281 75.785156 L 11.96875 75.785156 C 13.28125 75.785156 14.328125 76.863281 14.328125 78.144531 L 14.328125 104.660156 C 14.328125 107.28125 12.203125 109.410156 9.609375 109.410156 L 4.363281 109.410156 C 3.082031 109.410156 2.003906 108.332031 2.003906 107.019531 L 2.003906 78.144531 C 2.003906 76.863281 3.054688 75.785156 4.363281 75.785156 Z M 4.363281 75.785156 " fill-opacity="1" fill-rule="evenodd"/></g></svg>