<svg xmlns="http://www.w3.org/2000/svg" xmlns:xlink="http://www.w3.org/1999/xlink" width="150" zoomAndPan="magnify" viewBox="0 0 112.5 112.499997" height="150" preserveAspectRatio="xMidYMid meet" version="1.0"><defs><clipPath id="fe80e10b21"><path d="M 0 4.691406 L 112 4.691406 L 112 106.984375 L 0 106.984375 Z M 0 4.691406 " clip-rule="nonzero"/></clipPath></defs><g clip-path="url(#fe80e10b21)"><path fill="#ffffff" d="M 100.316406 4.691406 L 11.6875 4.691406 C 5.257812 4.691406 0.0273438 9.921875 0.0273438 16.351562 L 0.0273438 95.652344 C 0.0273438 102.078125 5.257812 107.3125 11.6875 107.3125 L 100.316406 107.3125 C 106.742188 107.3125 111.976562 102.078125 111.976562 95.652344 L 111.976562 16.351562 C 111.976562 9.921875 106.742188 4.691406 100.316406 4.691406 Z M 30.34375 14.019531 C 31.632812 14.019531 32.679688 15.0625 32.679688 16.351562 C 32.679688 17.640625 31.632812 18.683594 30.34375 18.683594 C 29.058594 18.683594 28.011719 17.640625 28.011719 16.351562 C 28.011719 15.0625 29.058594 14.019531 30.34375 14.019531 Z M 21.015625 14.019531 C 22.304688 14.019531 23.347656 15.0625 23.347656 16.351562 C 23.347656 17.640625 22.304688 18.683594 21.015625 18.683594 C 19.730469 18.683594 18.683594 17.640625 18.683594 16.351562 C 18.683594 15.0625 19.730469 14.019531 21.015625 14.019531 Z M 11.6875 14.019531 C 12.972656 14.019531 14.019531 15.0625 14.019531 16.351562 C 14.019531 17.640625 12.972656 18.683594 11.6875 18.683594 C 10.398438 18.683594 9.355469 17.640625 9.355469 16.351562 C 9.355469 15.0625 10.398438 14.019531 11.6875 14.019531 Z M 107.3125 95.652344 C 107.3125 99.507812 104.171875 102.648438 100.316406 102.648438 L 11.6875 102.648438 C 7.828125 102.648438 4.691406 99.507812 4.691406 95.652344 L 4.691406 28.011719 L 107.3125 28.011719 Z M 72.328125 56 L 95.652344 56 C 96.9375 56 97.984375 54.957031 97.984375 53.667969 L 97.984375 44.339844 C 97.984375 43.050781 96.9375 42.007812 95.652344 42.007812 L 72.328125 42.007812 C 71.039062 42.007812 69.996094 43.050781 69.996094 44.339844 L 69.996094 53.667969 C 69.996094 54.957031 71.039062 56 72.328125 56 Z M 72.328125 83.988281 L 95.652344 83.988281 C 96.9375 83.988281 97.984375 82.945312 97.984375 81.65625 L 97.984375 72.328125 C 97.984375 71.039062 96.9375 69.996094 95.652344 69.996094 L 72.328125 69.996094 C 71.039062 69.996094 69.996094 71.039062 69.996094 72.328125 L 69.996094 81.65625 C 69.996094 82.945312 71.039062 83.988281 72.328125 83.988281 Z M 21.546875 81.152344 C 21.59375 81.199219 21.65625 81.230469 21.707031 81.285156 C 22.828125 82.382812 24.042969 83.390625 25.351562 84.273438 C 25.496094 84.371094 25.648438 84.449219 25.796875 84.542969 C 27.042969 85.351562 28.347656 86.066406 29.730469 86.648438 C 29.886719 86.714844 30.050781 86.757812 30.214844 86.824219 C 31.613281 87.378906 33.058594 87.835938 34.566406 88.140625 C 34.65625 88.160156 34.75 88.164062 34.835938 88.183594 C 36.40625 88.484375 38.023438 88.652344 39.679688 88.652344 C 41.335938 88.652344 42.949219 88.480469 44.519531 88.183594 C 44.609375 88.164062 44.703125 88.160156 44.792969 88.140625 C 46.296875 87.835938 47.746094 87.378906 49.144531 86.824219 C 49.300781 86.757812 49.46875 86.714844 49.628906 86.648438 C 51.011719 86.066406 52.316406 85.351562 53.5625 84.542969 C 53.710938 84.449219 53.863281 84.371094 54.007812 84.273438 C 55.316406 83.390625 56.527344 82.382812 57.652344 81.285156 C 57.699219 81.238281 57.757812 81.203125 57.8125 81.152344 C 57.820312 81.144531 57.820312 81.128906 57.828125 81.121094 C 62.472656 76.472656 65.339844 70.066406 65.339844 63 C 65.339844 48.851562 53.832031 37.34375 39.683594 37.34375 C 25.535156 37.34375 14.027344 48.851562 14.027344 63 C 14.027344 70.066406 16.902344 76.472656 21.539062 81.121094 C 21.539062 81.128906 21.539062 81.144531 21.546875 81.152344 Z M 39.675781 42.007812 C 51.246094 42.007812 60.664062 51.425781 60.664062 63 C 60.664062 67.558594 59.164062 71.753906 56.6875 75.199219 C 54.53125 71.5 51.269531 68.652344 47.417969 66.984375 C 49.800781 64.851562 51.335938 61.78125 51.335938 58.332031 C 51.335938 51.90625 46.101562 46.671875 39.675781 46.671875 C 33.246094 46.671875 28.011719 51.90625 28.011719 58.332031 C 28.011719 61.78125 29.542969 64.851562 31.929688 66.984375 C 28.078125 68.652344 24.816406 71.5 22.664062 75.199219 C 20.179688 71.753906 18.683594 67.558594 18.683594 63 C 18.683594 51.425781 28.101562 42.007812 39.675781 42.007812 Z M 39.675781 42.007812 " fill-opacity="1" fill-rule="nonzero"/></g></svg>