<svg xmlns="http://www.w3.org/2000/svg" xmlns:xlink="http://www.w3.org/1999/xlink" width="150" zoomAndPan="magnify" viewBox="0 0 112.5 112.499997" height="150" preserveAspectRatio="xMidYMid meet" version="1.0"><defs><clipPath id="5376f505ab"><path d="M 3.871094 3.871094 L 84 3.871094 L 84 84 L 3.871094 84 Z M 3.871094 3.871094 " clip-rule="nonzero"/></clipPath></defs><path fill="#000000" d="M 64.675781 71.191406 L 71.1875 64.679688 L 84.410156 77.902344 L 77.898438 84.414062 Z M 64.675781 71.191406 " fill-opacity="1" fill-rule="nonzero"/><path fill="#000000" d="M 105.292969 91.394531 C 108.171875 94.269531 108.171875 98.941406 105.292969 101.824219 L 101.816406 105.292969 C 98.9375 108.175781 94.269531 108.175781 91.394531 105.292969 L 72.769531 86.667969 C 69.886719 83.785156 69.886719 79.121094 72.765625 76.242188 L 76.242188 72.765625 C 79.121094 69.886719 83.792969 69.886719 86.671875 72.765625 Z M 105.292969 91.394531 " fill-opacity="1" fill-rule="nonzero"/><g clip-path="url(#5376f505ab)"><path fill="#000000" d="M 43.421875 3.820312 C 21.546875 3.820312 3.820312 21.546875 3.820312 43.421875 C 3.820312 65.300781 21.546875 83.03125 43.421875 83.03125 C 65.300781 83.03125 83.03125 65.300781 83.03125 43.421875 C 83.03125 21.546875 65.300781 3.820312 43.421875 3.820312 Z M 43.421875 75.699219 C 25.59375 75.699219 11.144531 61.253906 11.144531 43.421875 C 11.144531 25.59375 25.59375 11.148438 43.421875 11.148438 C 61.253906 11.148438 75.703125 25.59375 75.703125 43.421875 C 75.703125 61.253906 61.253906 75.699219 43.421875 75.699219 Z M 43.421875 75.699219 " fill-opacity="1" fill-rule="nonzero"/></g><path fill="#000000" d="M 51.542969 63.027344 C 35.746094 63.027344 22.933594 50.214844 22.933594 34.414062 C 22.933594 33.996094 22.976562 33.582031 22.996094 33.164062 C 20.910156 36.539062 19.6875 40.503906 19.6875 44.757812 C 19.6875 56.976562 29.59375 66.878906 41.804688 66.878906 C 46.523438 66.878906 50.882812 65.390625 54.480469 62.878906 C 53.515625 62.984375 52.535156 63.027344 51.542969 63.027344 Z M 51.542969 63.027344 " fill-opacity="1" fill-rule="nonzero"/></svg>