<svg xmlns="http://www.w3.org/2000/svg" xmlns:xlink="http://www.w3.org/1999/xlink" width="150" zoomAndPan="magnify" viewBox="0 0 112.5 112.499997" height="150" preserveAspectRatio="xMidYMid meet" version="1.0"><defs><clipPath id="f02c4ea7fc"><path d="M 6.300781 40 L 78 40 L 78 112 L 6.300781 112 Z M 6.300781 40 " clip-rule="nonzero"/></clipPath><clipPath id="fabaeb892c"><path d="M 68 31 L 105.609375 31 L 105.609375 70 L 68 70 Z M 68 31 " clip-rule="nonzero"/></clipPath></defs><g clip-path="url(#f02c4ea7fc)"><path fill="#ffffff" d="M 65.953125 61.910156 L 69.890625 54.363281 L 63.835938 48.308594 L 56.269531 52.257812 C 53.917969 50.84375 51.339844 49.769531 48.605469 49.085938 L 46.046875 40.941406 L 37.484375 40.941406 L 34.925781 49.085938 C 32.191406 49.769531 29.617188 50.847656 27.261719 52.257812 L 19.691406 48.308594 L 13.640625 54.363281 L 17.578125 61.90625 C 16.148438 64.269531 15.058594 66.859375 14.371094 69.605469 L 6.269531 72.152344 L 6.269531 80.710938 L 14.339844 83.25 C 15.019531 86.023438 16.109375 88.636719 17.542969 91.019531 L 13.640625 98.503906 L 19.691406 104.558594 L 27.152344 100.664062 C 29.546875 102.113281 32.171875 103.21875 34.960938 103.90625 L 37.484375 111.929688 L 46.042969 111.929688 L 48.566406 103.90625 C 51.355469 103.21875 53.980469 102.113281 56.375 100.664062 L 63.835938 104.558594 L 69.890625 98.503906 L 65.984375 91.019531 C 67.417969 88.636719 68.507812 86.023438 69.1875 83.25 L 77.257812 80.710938 L 77.257812 72.152344 L 69.15625 69.605469 C 68.472656 66.859375 67.382812 64.269531 65.953125 61.910156 Z M 41.765625 95.222656 C 31.421875 95.222656 23.039062 86.835938 23.039062 76.492188 C 23.039062 66.148438 31.421875 57.765625 41.765625 57.765625 C 52.109375 57.765625 60.496094 66.148438 60.496094 76.492188 C 60.496094 86.835938 52.109375 95.222656 41.765625 95.222656 Z M 41.765625 95.222656 " fill-opacity="1" fill-rule="nonzero"/></g><path fill="#ffffff" d="M 40.347656 28.867188 L 36.699219 33.023438 L 39.609375 37.820312 L 44.96875 36.503906 C 46.265625 37.800781 47.769531 38.910156 49.4375 39.78125 L 49.796875 45.28125 L 55.246094 46.613281 L 58.101562 41.898438 C 59.984375 41.894531 61.828125 41.601562 63.578125 41.050781 L 67.726562 44.691406 L 72.523438 41.777344 L 71.203125 36.40625 C 72.484375 35.109375 73.585938 33.613281 74.449219 31.953125 L 79.984375 31.59375 L 81.316406 26.140625 L 76.554688 23.261719 C 76.542969 21.402344 76.253906 19.585938 75.710938 17.859375 L 79.390625 13.664062 L 76.480469 8.867188 L 71.042969 10.203125 C 69.765625 8.9375 68.292969 7.851562 66.65625 6.992188 L 66.292969 1.402344 L 60.84375 0.0703125 L 57.941406 4.863281 C 56.097656 4.871094 54.289062 5.15625 52.570312 5.691406 L 48.363281 1.996094 L 43.566406 4.910156 L 44.902344 10.328125 C 43.625 11.609375 42.527344 13.089844 41.660156 14.734375 L 36.105469 15.09375 L 34.773438 20.546875 L 39.519531 23.417969 C 39.519531 25.292969 39.808594 27.125 40.347656 28.867188 Z M 46.109375 20.46875 C 47.71875 13.882812 54.363281 9.847656 60.949219 11.457031 C 67.535156 13.066406 71.570312 19.710938 69.960938 26.296875 C 68.351562 32.882812 61.707031 36.917969 55.121094 35.308594 C 48.535156 33.699219 44.496094 27.058594 46.109375 20.46875 Z M 46.109375 20.46875 " fill-opacity="1" fill-rule="nonzero"/><g clip-path="url(#fabaeb892c)"><path fill="#ffffff" d="M 101.601562 48.894531 C 101.453125 47.472656 101.09375 46.058594 100.519531 44.707031 L 103.109375 41.082031 L 100.421875 37.515625 L 96.226562 39.007812 C 95.082031 38.082031 93.824219 37.347656 92.5 36.808594 L 91.769531 32.414062 L 87.347656 31.792969 L 85.441406 35.800781 C 84.007812 35.949219 82.585938 36.304688 81.226562 36.882812 L 77.621094 34.304688 L 74.054688 36.992188 L 75.53125 41.152344 C 74.589844 42.304688 73.84375 43.578125 73.296875 44.925781 L 68.953125 45.648438 L 68.332031 50.070312 L 72.292969 51.957031 C 72.445312 53.410156 72.808594 54.847656 73.394531 56.226562 L 70.84375 59.792969 L 73.53125 63.363281 L 77.664062 61.894531 C 78.828125 62.839844 80.113281 63.589844 81.46875 64.132812 L 82.1875 68.464844 L 86.609375 69.085938 L 88.5 65.109375 C 89.941406 64.960938 91.375 64.59375 92.742188 64.007812 L 96.332031 66.574219 L 99.898438 63.886719 L 98.417969 59.714844 C 99.347656 58.5625 100.085938 57.296875 100.621094 55.960938 L 105 55.234375 L 105.621094 50.8125 Z M 92.832031 58.261719 C 88.519531 61.507812 82.394531 60.644531 79.148438 56.335938 C 75.902344 52.023438 76.765625 45.898438 81.074219 42.65625 C 85.386719 39.410156 91.511719 40.269531 94.757812 44.582031 C 98.003906 48.890625 97.140625 55.015625 92.832031 58.261719 Z M 92.832031 58.261719 " fill-opacity="1" fill-rule="nonzero"/></g></svg>