<svg xmlns="http://www.w3.org/2000/svg" xmlns:xlink="http://www.w3.org/1999/xlink" width="150" zoomAndPan="magnify" viewBox="0 0 112.5 112.499997" height="150" preserveAspectRatio="xMidYMid meet" version="1.0"><path fill="#121212" d="M 86.8125 25.171875 C 87.824219 26.183594 88.78125 27.238281 89.6875 28.34375 C 90.589844 29.445312 91.441406 30.589844 92.234375 31.777344 C 93.027344 32.964844 93.761719 34.1875 94.433594 35.445312 C 95.105469 36.707031 95.714844 37.996094 96.261719 39.3125 C 96.808594 40.632812 97.289062 41.972656 97.703125 43.339844 C 98.117188 44.707031 98.464844 46.089844 98.742188 47.488281 C 99.019531 48.890625 99.230469 50.300781 99.371094 51.722656 C 99.511719 53.140625 99.582031 54.566406 99.582031 55.992188 C 99.582031 57.421875 99.511719 58.84375 99.371094 60.265625 C 99.230469 61.6875 99.019531 63.097656 98.742188 64.496094 C 98.464844 65.898438 98.117188 67.28125 97.703125 68.644531 C 97.289062 70.011719 96.808594 71.355469 96.261719 72.671875 C 95.714844 73.992188 95.105469 75.28125 94.433594 76.539062 C 93.761719 77.800781 93.027344 79.023438 92.234375 80.207031 C 91.441406 81.394531 90.59375 82.542969 89.6875 83.644531 C 88.78125 84.75 87.824219 85.804688 86.8125 86.8125 C 85.804688 87.824219 84.75 88.78125 83.644531 89.6875 C 82.542969 90.59375 81.394531 91.441406 80.210938 92.234375 C 79.023438 93.027344 77.800781 93.761719 76.539062 94.433594 C 75.28125 95.105469 73.992188 95.714844 72.675781 96.261719 C 71.355469 96.808594 70.011719 97.289062 68.648438 97.703125 C 67.28125 98.117188 65.898438 98.464844 64.496094 98.742188 C 63.097656 99.023438 61.6875 99.230469 60.265625 99.371094 C 58.84375 99.511719 57.421875 99.582031 55.992188 99.582031 C 54.566406 99.582031 53.140625 99.511719 51.722656 99.371094 C 50.300781 99.230469 48.890625 99.023438 47.492188 98.742188 C 46.089844 98.464844 44.707031 98.117188 43.339844 97.703125 C 41.976562 97.289062 40.632812 96.808594 39.3125 96.261719 C 37.996094 95.71875 36.707031 95.109375 35.445312 94.433594 C 34.1875 93.761719 32.964844 93.027344 31.777344 92.234375 C 30.589844 91.441406 29.445312 90.59375 28.34375 89.6875 C 27.238281 88.78125 26.183594 87.824219 25.171875 86.816406 C 24.164062 85.804688 23.207031 84.75 22.300781 83.644531 C 21.394531 82.542969 20.546875 81.398438 19.753906 80.210938 C 18.960938 79.023438 18.226562 77.800781 17.554688 76.542969 C 16.878906 75.28125 16.269531 73.992188 15.722656 72.675781 C 15.179688 71.355469 14.699219 70.011719 14.285156 68.648438 C 13.867188 67.28125 13.523438 65.898438 13.242188 64.5 C 12.964844 63.097656 12.757812 61.6875 12.617188 60.265625 C 12.476562 58.847656 12.40625 57.421875 12.40625 55.996094 C 12.40625 54.566406 12.476562 53.144531 12.617188 51.722656 C 12.757812 50.300781 12.964844 48.890625 13.242188 47.492188 C 13.523438 46.089844 13.867188 44.707031 14.28125 43.34375 C 14.695312 41.976562 15.175781 40.632812 15.722656 39.316406 C 16.269531 37.996094 16.878906 36.707031 17.550781 35.449219 C 18.226562 34.1875 18.957031 32.964844 19.75 31.777344 C 20.542969 30.59375 21.394531 29.445312 22.300781 28.34375 C 23.207031 27.238281 24.164062 26.183594 25.171875 25.175781 C 26.179688 24.164062 27.238281 23.207031 28.339844 22.300781 C 29.445312 21.394531 30.589844 20.546875 31.777344 19.753906 C 32.964844 18.960938 34.1875 18.226562 35.445312 17.554688 C 36.703125 16.882812 37.992188 16.269531 39.3125 15.726562 C 40.632812 15.179688 41.972656 14.699219 43.339844 14.285156 C 44.707031 13.871094 46.089844 13.523438 47.488281 13.246094 C 48.890625 12.964844 50.300781 12.757812 51.71875 12.617188 C 53.140625 12.476562 54.566406 12.40625 55.992188 12.40625 C 57.421875 12.40625 58.84375 12.476562 60.265625 12.617188 C 61.683594 12.757812 63.097656 12.964844 64.496094 13.246094 C 65.894531 13.523438 67.277344 13.871094 68.644531 14.285156 C 70.011719 14.699219 71.355469 15.179688 72.671875 15.722656 C 73.992188 16.269531 75.28125 16.878906 76.539062 17.554688 C 77.796875 18.226562 79.019531 18.960938 80.207031 19.753906 C 81.394531 20.546875 82.539062 21.394531 83.644531 22.300781 C 84.746094 23.207031 85.804688 24.164062 86.8125 25.171875 Z M 86.8125 25.171875 " fill-opacity="1" fill-rule="nonzero"/><path fill="#ffffff" d="M 52.050781 58.140625 L 76.234375 35.917969 L 35.753906 47.667969 Z M 52.050781 58.140625 " fill-opacity="1" fill-rule="nonzero"/><path fill="#ffffff" d="M 53.082031 59.207031 L 62.738281 76.066406 L 76.234375 35.917969 Z M 53.082031 59.207031 " fill-opacity="1" fill-rule="nonzero"/></svg>