<svg xmlns="http://www.w3.org/2000/svg" xmlns:xlink="http://www.w3.org/1999/xlink" width="150" zoomAndPan="magnify" viewBox="0 0 112.5 112.499997" height="150" preserveAspectRatio="xMidYMid meet" version="1.0"><defs><clipPath id="fc46c8d584"><path d="M 2.941406 2.941406 L 109.097656 2.941406 L 109.097656 109.097656 L 2.941406 109.097656 Z M 2.941406 2.941406 " clip-rule="nonzero"/></clipPath><clipPath id="e52c73cd30"><path d="M 11 29.15625 L 105 29.15625 L 105 86.199219 L 11 86.199219 Z M 11 29.15625 " clip-rule="nonzero"/></clipPath></defs><g clip-path="url(#fc46c8d584)"><path fill="#e8b17d" d="M 109.050781 55.996094 C 109.050781 57.730469 108.964844 59.464844 108.792969 61.195312 C 108.625 62.925781 108.371094 64.640625 108.03125 66.34375 C 107.691406 68.050781 107.269531 69.734375 106.765625 71.394531 C 106.261719 73.058594 105.675781 74.691406 105.011719 76.296875 C 104.347656 77.902344 103.605469 79.472656 102.785156 81.003906 C 101.964844 82.539062 101.074219 84.027344 100.109375 85.46875 C 99.144531 86.914062 98.109375 88.308594 97.007812 89.652344 C 95.90625 90.996094 94.738281 92.28125 93.511719 93.511719 C 92.28125 94.738281 90.996094 95.90625 89.652344 97.007812 C 88.308594 98.109375 86.914062 99.144531 85.46875 100.109375 C 84.027344 101.074219 82.539062 101.964844 81.003906 102.785156 C 79.472656 103.605469 77.902344 104.347656 76.296875 105.011719 C 74.691406 105.675781 73.058594 106.261719 71.394531 106.765625 C 69.734375 107.269531 68.050781 107.691406 66.34375 108.03125 C 64.640625 108.371094 62.925781 108.625 61.195312 108.792969 C 59.464844 108.964844 57.730469 109.050781 55.996094 109.050781 C 54.257812 109.050781 52.523438 108.964844 50.792969 108.792969 C 49.066406 108.625 47.347656 108.371094 45.644531 108.03125 C 43.941406 107.691406 42.257812 107.269531 40.59375 106.765625 C 38.929688 106.261719 37.296875 105.675781 35.691406 105.011719 C 34.085938 104.347656 32.515625 103.605469 30.984375 102.785156 C 29.453125 101.964844 27.964844 101.074219 26.519531 100.109375 C 25.074219 99.144531 23.679688 98.109375 22.335938 97.007812 C 20.992188 95.90625 19.707031 94.738281 18.480469 93.511719 C 17.25 92.28125 16.085938 90.996094 14.984375 89.652344 C 13.878906 88.308594 12.847656 86.914062 11.882812 85.46875 C 10.914062 84.027344 10.023438 82.539062 9.203125 81.003906 C 8.386719 79.472656 7.644531 77.902344 6.976562 76.296875 C 6.3125 74.691406 5.730469 73.058594 5.222656 71.394531 C 4.71875 69.734375 4.296875 68.050781 3.960938 66.34375 C 3.621094 64.640625 3.367188 62.925781 3.195312 61.195312 C 3.023438 59.464844 2.941406 57.730469 2.941406 55.996094 C 2.941406 54.257812 3.023438 52.523438 3.195312 50.792969 C 3.367188 49.066406 3.621094 47.347656 3.960938 45.644531 C 4.296875 43.941406 4.71875 42.257812 5.222656 40.59375 C 5.730469 38.929688 6.3125 37.296875 6.976562 35.691406 C 7.644531 34.085938 8.386719 32.515625 9.203125 30.984375 C 10.023438 29.453125 10.914062 27.964844 11.882812 26.519531 C 12.847656 25.074219 13.878906 23.679688 14.984375 22.335938 C 16.085938 20.992188 17.25 19.707031 18.480469 18.480469 C 19.707031 17.25 20.992188 16.085938 22.335938 14.984375 C 23.679688 13.878906 25.074219 12.847656 26.519531 11.882812 C 27.964844 10.914062 29.453125 10.023438 30.984375 9.203125 C 32.515625 8.386719 34.085938 7.644531 35.691406 6.976562 C 37.296875 6.3125 38.929688 5.730469 40.59375 5.222656 C 42.257812 4.71875 43.941406 4.296875 45.644531 3.960938 C 47.347656 3.621094 49.066406 3.367188 50.792969 3.195312 C 52.523438 3.023438 54.257812 2.941406 55.996094 2.941406 C 57.730469 2.941406 59.464844 3.023438 61.195312 3.195312 C 62.925781 3.367188 64.640625 3.621094 66.34375 3.960938 C 68.050781 4.296875 69.734375 4.71875 71.394531 5.222656 C 73.058594 5.730469 74.691406 6.3125 76.296875 6.976562 C 77.902344 7.644531 79.472656 8.386719 81.003906 9.203125 C 82.539062 10.023438 84.027344 10.914062 85.46875 11.882812 C 86.914062 12.847656 88.308594 13.878906 89.652344 14.984375 C 90.996094 16.085938 92.28125 17.25 93.511719 18.480469 C 94.738281 19.707031 95.90625 20.992188 97.007812 22.335938 C 98.109375 23.679688 99.144531 25.074219 100.109375 26.519531 C 101.074219 27.964844 101.964844 29.453125 102.785156 30.984375 C 103.605469 32.515625 104.347656 34.085938 105.011719 35.691406 C 105.675781 37.296875 106.261719 38.929688 106.765625 40.59375 C 107.269531 42.257812 107.691406 43.941406 108.03125 45.644531 C 108.371094 47.347656 108.625 49.066406 108.792969 50.792969 C 108.964844 52.523438 109.050781 54.257812 109.050781 55.996094 Z M 109.050781 55.996094 " fill-opacity="1" fill-rule="nonzero"/></g><path fill="#7db4e8" d="M 21.328125 67 C 21.328125 67 21.285156 67.105469 21.214844 67.304688 C 20.777344 68.515625 19.265625 73.21875 19.957031 78.234375 C 19.957031 78.234375 20.183594 80.953125 24.648438 79.542969 C 29.273438 78.074219 32.703125 77.058594 35.039062 74.683594 C 37.375 72.3125 21.328125 67 21.328125 67 Z M 21.328125 67 " fill-opacity="1" fill-rule="nonzero"/><path stroke-linecap="round" transform="matrix(0.469242, 0, 0, 0.464405, 11.00394, 29.674409)" fill="none" stroke-linejoin="round" d="M 67.762069 60.682078 C 67.762069 61.21199 67.578928 61.716668 67.220971 62.212935 C 66.854689 62.70079 66.338565 63.129766 65.672598 63.508275 C 65.006631 63.886784 64.232444 64.172768 63.358362 64.374639 C 62.484281 64.57651 61.576901 64.677446 60.627898 64.677446 C 59.687219 64.677446 58.771515 64.57651 57.897433 64.374639 C 57.031676 64.172768 56.257489 63.886784 55.591522 63.508275 C 54.917231 63.129766 54.401106 62.70079 54.043149 62.212935 C 53.676867 61.716668 53.502051 61.21199 53.502051 60.682078 C 53.502051 60.152166 53.676867 59.639077 54.043149 59.151221 C 54.401106 58.663366 54.917231 58.225978 55.591522 57.84747 C 56.257489 57.477372 57.031676 57.191388 57.897433 56.981106 C 58.771515 56.779234 59.687219 56.678299 60.627898 56.678299 C 61.576901 56.678299 62.484281 56.779234 63.358362 56.981106 C 64.232444 57.191388 65.006631 57.477372 65.672598 57.84747 C 66.338565 58.225978 66.854689 58.663366 67.220971 59.151221 C 67.578928 59.639077 67.762069 60.152166 67.762069 60.682078 Z M 67.762069 60.682078 " stroke="#231f20" stroke-width="2.5" stroke-opacity="1" stroke-miterlimit="4"/><path fill="#dfe3e8" d="M 78.949219 69.707031 C 77.074219 70.691406 74.933594 71.746094 72.460938 72.875 C 69.898438 74.03125 67.265625 75 64.558594 75.769531 C 60.222656 77 55.804688 77.734375 51.300781 77.972656 C 39.402344 78.621094 28.398438 75.652344 22.210938 70.261719 C 20.039062 68.386719 18.132812 66.277344 16.488281 63.933594 C 14.847656 61.589844 13.519531 59.082031 12.503906 56.410156 L 17.667969 49.78125 L 71.628906 60 Z M 78.949219 69.707031 " fill-opacity="1" fill-rule="nonzero"/><g clip-path="url(#e52c73cd30)"><path fill="#7db4e8" d="M 104.246094 62.820312 C 97.109375 67.753906 90.257812 62.03125 90.257812 62.03125 C 90.257812 62.03125 87.914062 64.96875 78.949219 69.707031 C 70.035156 72.957031 63.039062 72.535156 63.039062 72.535156 C 63.730469 73.53125 64.238281 74.617188 64.558594 75.785156 C 65.648438 79.605469 64.675781 83.5625 64.132812 85.292969 C 64.046875 85.554688 63.886719 85.753906 63.644531 85.894531 C 63.40625 86.035156 63.152344 86.078125 62.878906 86.023438 C 56.664062 84.789062 53.234375 81.441406 51.300781 77.972656 C 49.679688 74.941406 48.890625 71.714844 48.929688 68.285156 C 45.644531 66.589844 32.546875 57.441406 26.039062 55.40625 C 19.625 53.414062 12.703125 56.320312 12.503906 56.410156 C 10.535156 50.960938 10.453125 45.625 12.621094 41.804688 C 16.734375 34.574219 28.609375 33.667969 38.429688 34.683594 C 40.824219 34.972656 43.179688 35.453125 45.496094 36.117188 C 47.570312 33.941406 53.234375 29.210938 62.863281 29.714844 C 74.59375 30.351562 63.390625 33.894531 62.863281 42.660156 C 67.382812 44.78125 71.433594 47.039062 74.183594 49.035156 C 81.945312 54.683594 87.539062 54.683594 87.539062 54.683594 C 88.738281 48.753906 93.304688 45.394531 96.214844 43.835938 C 99.121094 42.273438 104.871094 42.464844 102.554688 44.738281 C 101.035156 46.207031 99.785156 47.875 98.8125 49.738281 C 97.835938 51.605469 97.1875 53.578125 96.855469 55.652344 C 97.796875 57.046875 100.339844 59.121094 103.183594 60.5625 C 105.5 61.746094 104.246094 62.820312 104.246094 62.820312 Z M 104.246094 62.820312 " fill-opacity="1" fill-rule="nonzero"/></g><path fill="#143f65" d="M 51.785156 64.433594 C 51.675781 64.4375 51.574219 64.40625 51.484375 64.335938 C 51.371094 64.257812 51.300781 64.148438 51.273438 64.011719 C 51.25 63.871094 51.277344 63.746094 51.359375 63.632812 C 54.738281 58.988281 52.296875 56.085938 52.296875 56.058594 C 52.207031 55.949219 52.164062 55.824219 52.175781 55.683594 C 52.1875 55.542969 52.25 55.429688 52.359375 55.335938 C 52.464844 55.246094 52.589844 55.207031 52.730469 55.21875 C 52.875 55.230469 52.988281 55.289062 53.082031 55.398438 C 53.203125 55.542969 56.039062 58.96875 52.195312 64.222656 C 52.09375 64.359375 51.957031 64.433594 51.785156 64.433594 Z M 51.785156 64.433594 " fill-opacity="1" fill-rule="nonzero"/><path fill="#143f65" d="M 55.886719 64.503906 C 55.777344 64.507812 55.675781 64.476562 55.585938 64.410156 C 55.472656 64.328125 55.402344 64.21875 55.378906 64.082031 C 55.355469 63.941406 55.386719 63.816406 55.46875 63.703125 C 55.8125 63.226562 56.085938 62.710938 56.289062 62.160156 C 56.492188 61.609375 56.613281 61.042969 56.660156 60.460938 C 56.707031 59.875 56.675781 59.296875 56.5625 58.722656 C 56.449219 58.148438 56.257812 57.597656 55.996094 57.074219 C 55.925781 56.953125 55.910156 56.824219 55.949219 56.6875 C 55.984375 56.554688 56.066406 56.453125 56.1875 56.382812 C 56.3125 56.316406 56.441406 56.300781 56.578125 56.335938 C 56.714844 56.375 56.816406 56.457031 56.886719 56.578125 C 57.203125 57.183594 57.433594 57.824219 57.570312 58.496094 C 57.707031 59.164062 57.75 59.839844 57.699219 60.523438 C 57.648438 61.203125 57.503906 61.867188 57.269531 62.511719 C 57.03125 63.152344 56.710938 63.75 56.304688 64.304688 C 56.199219 64.441406 56.058594 64.507812 55.886719 64.503906 Z M 55.886719 64.503906 " fill-opacity="1" fill-rule="nonzero"/><path fill="#143f65" d="M 35.140625 55.480469 C 35.140625 55.730469 35.09375 55.972656 34.996094 56.203125 C 34.898438 56.4375 34.761719 56.640625 34.582031 56.816406 C 34.402344 56.996094 34.195312 57.132812 33.960938 57.226562 C 33.730469 57.324219 33.484375 57.371094 33.230469 57.371094 C 32.980469 57.371094 32.734375 57.324219 32.5 57.226562 C 32.265625 57.132812 32.0625 56.996094 31.882812 56.816406 C 31.703125 56.640625 31.5625 56.4375 31.46875 56.203125 C 31.371094 55.972656 31.320312 55.730469 31.320312 55.480469 C 31.320312 55.230469 31.371094 54.988281 31.46875 54.757812 C 31.5625 54.527344 31.703125 54.320312 31.882812 54.144531 C 32.0625 53.96875 32.265625 53.832031 32.5 53.734375 C 32.734375 53.640625 32.980469 53.589844 33.230469 53.589844 C 33.484375 53.589844 33.730469 53.640625 33.960938 53.734375 C 34.195312 53.832031 34.402344 53.96875 34.582031 54.144531 C 34.761719 54.320312 34.898438 54.527344 34.996094 54.757812 C 35.09375 54.988281 35.140625 55.230469 35.140625 55.480469 Z M 35.140625 55.480469 " fill-opacity="1" fill-rule="nonzero"/><path fill="#143f65" d="M 25.550781 62.75 C 24.3125 62.761719 23.234375 62.359375 22.3125 61.542969 C 22.210938 61.421875 22.164062 61.285156 22.167969 61.132812 C 22.175781 60.976562 22.234375 60.84375 22.347656 60.734375 C 22.457031 60.625 22.589844 60.566406 22.75 60.5625 C 22.90625 60.554688 23.042969 60.605469 23.160156 60.707031 C 23.683594 61.144531 24.277344 61.417969 24.949219 61.535156 C 25.621094 61.652344 26.277344 61.589844 26.914062 61.351562 C 28.894531 60.742188 29.171875 59.285156 29.183594 59.222656 C 29.210938 59.0625 29.289062 58.9375 29.425781 58.839844 C 29.558594 58.746094 29.707031 58.710938 29.867188 58.738281 C 30.023438 58.765625 30.148438 58.84375 30.238281 58.972656 C 30.328125 59.101562 30.363281 59.242188 30.339844 59.394531 C 30.339844 59.488281 29.972656 61.640625 27.246094 62.476562 C 26.695312 62.648438 26.128906 62.742188 25.550781 62.75 Z M 25.550781 62.75 " fill-opacity="1" fill-rule="nonzero"/></svg>