<svg xmlns="http://www.w3.org/2000/svg" xmlns:xlink="http://www.w3.org/1999/xlink" width="150" zoomAndPan="magnify" viewBox="0 0 112.5 112.499997" height="150" preserveAspectRatio="xMidYMid meet" version="1.0"><defs><clipPath id="67db368ed1"><path d="M 2 1.824219 L 110 1.824219 L 110 110 L 2 110 Z M 2 1.824219 " clip-rule="nonzero"/></clipPath></defs><g clip-path="url(#67db368ed1)"><path fill="#ffffff" d="M 52.601562 1.941406 C 51.464844 1.929688 50.488281 2.746094 50.285156 3.859375 L 49.007812 10.863281 C 47.910156 11.21875 46.851562 11.648438 45.808594 12.160156 L 40.058594 8.011719 C 39.132812 7.34375 37.855469 7.433594 37.050781 8.246094 L 32.050781 13.164062 C 31.246094 13.96875 31.125 15.230469 31.777344 16.164062 L 35.816406 22.015625 C 35.285156 23.046875 34.839844 24.109375 34.480469 25.195312 L 27.46875 26.328125 C 26.347656 26.503906 25.515625 27.472656 25.503906 28.625 L 25.460938 35.644531 C 25.449219 36.777344 26.261719 37.757812 27.378906 37.957031 L 34.410156 39.238281 C 34.757812 40.324219 35.195312 41.375 35.707031 42.410156 L 31.527344 48.1875 C 30.863281 49.109375 30.953125 50.390625 31.757812 51.203125 L 36.695312 56.195312 C 37.488281 57 38.75 57.117188 39.683594 56.46875 L 45.605469 52.390625 C 46.628906 52.914062 47.683594 53.34375 48.761719 53.699219 L 49.96875 60.792969 C 50.160156 61.917969 51.117188 62.738281 52.261719 62.75 L 59.273438 62.785156 C 60.425781 62.792969 61.402344 61.960938 61.59375 60.839844 L 62.792969 53.753906 C 63.863281 53.40625 64.902344 52.984375 65.917969 52.472656 L 71.796875 56.652344 C 72.730469 57.308594 73.992188 57.199219 74.796875 56.40625 L 79.796875 51.476562 C 80.609375 50.671875 80.71875 49.394531 80.050781 48.453125 L 75.882812 42.601562 C 76.402344 41.585938 76.84375 40.554688 77.199219 39.492188 L 84.320312 38.285156 C 85.433594 38.09375 86.257812 37.125 86.265625 35.984375 L 86.304688 28.972656 C 86.3125 27.828125 85.492188 26.851562 84.355469 26.660156 L 77.300781 25.460938 C 76.953125 24.382812 76.523438 23.332031 76.019531 22.296875 L 80.171875 16.4375 C 80.835938 15.515625 80.738281 14.253906 79.933594 13.441406 L 74.996094 8.449219 C 74.191406 7.644531 72.910156 7.527344 71.980469 8.191406 L 66.183594 12.304688 C 65.160156 11.785156 64.117188 11.347656 63.046875 10.988281 L 61.914062 3.953125 C 61.730469 2.816406 60.761719 1.984375 59.609375 1.976562 Z M 54.539062 6.628906 L 57.609375 6.648438 L 58.625 12.972656 C 58.769531 13.898438 59.457031 14.636719 60.351562 14.867188 C 62.070312 15.304688 63.726562 16.007812 65.277344 16.949219 C 66.074219 17.445312 67.089844 17.40625 67.847656 16.867188 L 73.066406 13.164062 L 75.222656 15.339844 L 71.46875 20.605469 C 70.9375 21.367188 70.890625 22.363281 71.367188 23.15625 C 72.289062 24.71875 72.964844 26.382812 73.367188 28.09375 C 73.589844 29.007812 74.328125 29.703125 75.261719 29.867188 L 81.613281 30.9375 L 81.597656 34 L 75.179688 35.078125 C 74.265625 35.234375 73.523438 35.917969 73.296875 36.816406 C 72.867188 38.515625 72.179688 40.160156 71.238281 41.695312 C 70.753906 42.5 70.792969 43.515625 71.339844 44.273438 L 75.078125 49.546875 L 72.910156 51.695312 L 67.601562 47.929688 C 66.84375 47.390625 65.84375 47.355469 65.050781 47.828125 C 63.496094 48.753906 61.851562 49.410156 60.140625 49.832031 C 59.226562 50.050781 58.542969 50.792969 58.386719 51.714844 L 57.308594 58.09375 L 54.253906 58.066406 L 53.175781 51.667969 C 53.019531 50.753906 52.335938 50.015625 51.421875 49.796875 C 49.730469 49.375 48.066406 48.679688 46.511719 47.746094 C 45.726562 47.273438 44.730469 47.300781 43.96875 47.828125 L 38.640625 51.503906 L 36.484375 49.320312 L 40.242188 44.128906 C 40.789062 43.367188 40.835938 42.355469 40.351562 41.550781 C 39.425781 39.988281 38.75 38.324219 38.332031 36.605469 C 38.109375 35.707031 37.386719 35.023438 36.472656 34.847656 L 30.148438 33.707031 L 30.175781 30.636719 L 36.472656 29.621094 C 37.398438 29.472656 38.148438 28.789062 38.375 27.882812 C 38.816406 26.15625 39.5 24.492188 40.449219 22.9375 C 40.933594 22.152344 40.90625 21.144531 40.378906 20.386719 L 36.75 15.121094 L 38.925781 12.964844 L 44.097656 16.695312 C 44.847656 17.242188 45.851562 17.289062 46.65625 16.824219 C 48.230469 15.878906 49.902344 15.214844 51.628906 14.792969 C 52.535156 14.582031 53.222656 13.851562 53.386719 12.945312 Z M 55.855469 20.742188 C 52.847656 20.726562 49.828125 21.851562 47.535156 24.125 C 42.945312 28.660156 42.910156 36.128906 47.445312 40.726562 C 51.976562 45.316406 59.457031 45.351562 64.042969 40.820312 C 68.632812 36.285156 68.671875 28.808594 64.136719 24.21875 C 61.867188 21.921875 58.863281 20.761719 55.855469 20.742188 Z M 55.835938 25.398438 C 57.636719 25.40625 59.429688 26.109375 60.808594 27.507812 C 63.570312 30.296875 63.542969 34.730469 60.753906 37.480469 C 57.964844 40.242188 53.53125 40.222656 50.773438 37.4375 C 48.011719 34.640625 48.039062 30.207031 50.828125 27.453125 C 52.226562 26.074219 54.027344 25.386719 55.835938 25.398438 Z M 31.125 62.785156 C 25.019531 62.785156 22.203125 64.246094 19.167969 65.417969 C 19.167969 65.425781 19.167969 65.425781 19.167969 65.425781 C 13.347656 67.695312 3.382812 72.394531 3.382812 72.394531 C 2.210938 72.941406 1.710938 74.339844 2.257812 75.511719 C 2.816406 76.679688 4.214844 77.183594 5.382812 76.632812 C 5.382812 76.632812 15.414062 71.90625 20.859375 69.789062 C 24.226562 68.480469 25.6875 67.464844 31.125 67.464844 C 43.128906 67.464844 42.644531 72.675781 47.710938 75.65625 C 47.78125 75.703125 47.863281 75.746094 47.945312 75.773438 C 54.226562 78.589844 60.972656 79.167969 66.414062 79.167969 C 68.816406 79.167969 70.332031 79.722656 71.15625 80.34375 C 71.96875 80.976562 72.261719 81.625 72.261719 82.675781 C 72.261719 83.910156 71.953125 84.496094 71.136719 85.089844 C 70.332031 85.675781 68.78125 86.1875 66.414062 86.1875 L 54.125 86.1875 C 48.96875 86.1875 40.09375 83.917969 40.09375 83.917969 C 39.289062 83.699219 38.421875 83.9375 37.828125 84.53125 C 37.234375 85.125 37.003906 85.996094 37.222656 86.800781 C 37.453125 87.613281 38.09375 88.242188 38.90625 88.453125 C 38.90625 88.453125 47.710938 90.867188 54.125 90.867188 L 66.414062 90.867188 C 68.796875 90.867188 70.875 90.472656 72.609375 89.613281 C 72.839844 89.550781 73.058594 89.449219 73.25 89.3125 L 95.445312 74.75 C 98.78125 72.820312 101.058594 72.28125 102.394531 72.300781 C 103.726562 72.328125 104.183594 72.730469 104.585938 73.242188 C 105.179688 74.011719 105.21875 74.304688 104.832031 75.191406 C 104.441406 76.085938 103.296875 77.464844 101.242188 78.890625 C 101.242188 78.890625 101.242188 78.890625 101.230469 78.890625 C 98.691406 80.664062 70.269531 99.1875 66.988281 101.050781 C 64.511719 102.457031 62.546875 103.9375 60.304688 104.570312 C 58.066406 105.191406 55.425781 105.191406 51.054688 103.109375 C 48.140625 101.707031 35.726562 95.347656 31.703125 93.308594 C 29.464844 92.175781 27.550781 91.535156 25.605469 91.644531 C 23.648438 91.753906 21.996094 92.585938 20.285156 93.664062 C 20.277344 93.664062 20.265625 93.671875 20.265625 93.683594 L 14.472656 97.386719 C 13.738281 97.824219 13.308594 98.628906 13.335938 99.476562 C 13.363281 100.328125 13.859375 101.097656 14.617188 101.480469 C 15.386719 101.863281 16.289062 101.808594 16.996094 101.324219 L 22.761719 97.632812 C 24.253906 96.699219 25.09375 96.359375 25.863281 96.316406 C 26.628906 96.269531 27.679688 96.515625 29.589844 97.484375 C 33.578125 99.503906 45.796875 105.777344 49.042969 107.320312 C 54.136719 109.761719 58.257812 109.992188 61.558594 109.078125 C 64.859375 108.152344 67.207031 106.308594 69.300781 105.117188 C 73.816406 102.550781 100.648438 85 103.910156 82.730469 C 106.386719 81.003906 108.207031 79.203125 109.128906 77.046875 C 110.054688 74.886719 109.75 72.253906 108.28125 70.371094 C 108.28125 70.371094 108.28125 70.371094 108.28125 70.363281 C 107.117188 68.882812 105.0625 67.675781 102.476562 67.621094 C 101.003906 67.59375 99.367188 67.929688 97.546875 68.597656 C 97.210938 68.152344 96.699219 67.566406 95.992188 67.054688 C 94.632812 66.039062 92.464844 65.125 89.523438 65.125 C 88.011719 65.125 86.777344 65.472656 85.792969 65.882812 C 84.382812 64.539062 81.886719 62.832031 78.257812 62.832031 C 75.316406 62.832031 72.554688 63.816406 70.636719 64.953125 C 70.277344 65.160156 69.417969 65.699219 67.957031 66.617188 C 66.496094 67.53125 64.585938 68.707031 62.699219 69.886719 C 59.695312 71.761719 57.828125 72.933594 56.75 73.609375 C 54.457031 73.152344 52.160156 72.503906 49.996094 71.550781 C 48.148438 70.363281 44.59375 62.785156 31.125 62.785156 Z M 78.257812 67.511719 C 79.742188 67.511719 80.800781 67.886719 81.550781 68.324219 L 70.726562 75.035156 C 69.4375 74.667969 67.992188 74.484375 66.414062 74.484375 C 65.734375 74.484375 64.996094 74.441406 64.292969 74.414062 C 64.730469 74.136719 64.730469 74.136719 65.179688 73.863281 C 67.0625 72.683594 68.960938 71.496094 70.433594 70.582031 C 71.898438 69.675781 73.09375 68.9375 73.011719 68.984375 C 74.117188 68.324219 76.523438 67.511719 78.257812 67.511719 Z M 89.523438 69.804688 C 91.421875 69.804688 92.445312 70.289062 93.070312 70.71875 C 93.03125 70.738281 93.003906 70.757812 92.96875 70.785156 L 76.796875 81.386719 C 76.578125 80.082031 76.039062 78.828125 75.179688 77.785156 L 86.488281 70.773438 L 86.496094 70.757812 C 86.585938 70.710938 88.542969 69.804688 89.523438 69.804688 Z M 89.523438 69.804688 " fill-opacity="1" fill-rule="nonzero"/></g></svg>