<svg xmlns="http://www.w3.org/2000/svg" xmlns:xlink="http://www.w3.org/1999/xlink" width="150" zoomAndPan="magnify" viewBox="0 0 112.5 112.499997" height="150" preserveAspectRatio="xMidYMid meet" version="1.0"><defs><clipPath id="1179686a9b"><path d="M 10.121094 0 L 101.960938 0 L 101.960938 112.003906 L 10.121094 112.003906 Z M 10.121094 0 " clip-rule="nonzero"/></clipPath></defs><g clip-path="url(#1179686a9b)"><path fill="#ffffff" d="M 13.945312 6.296875 C 13.945312 4.191406 15.660156 2.472656 17.765625 2.472656 L 84.675781 2.472656 L 84.675781 8.207031 C 84.675781 12.425781 88.101562 15.855469 92.320312 15.855469 L 98.054688 15.855469 L 98.054688 105.699219 C 98.054688 107.804688 96.335938 109.523438 94.230469 109.523438 L 17.765625 109.523438 C 15.660156 109.523438 13.945312 107.804688 13.945312 105.699219 Z M 95.351562 12.03125 L 92.320312 12.03125 C 90.214844 12.03125 88.496094 10.3125 88.496094 8.207031 L 88.496094 5.175781 Z M 17.765625 113.347656 L 94.230469 113.347656 C 98.449219 113.347656 101.878906 109.917969 101.878906 105.699219 L 101.878906 15.523438 C 101.878906 14.71875 101.707031 13.949219 101.394531 13.234375 C 101.371094 13.1875 101.347656 13.15625 101.332031 13.121094 C 101.050781 12.515625 100.683594 11.957031 100.199219 11.46875 L 89.058594 0.328125 C 88.570312 -0.15625 88.003906 -0.53125 87.398438 -0.8125 C 87.363281 -0.828125 87.339844 -0.851562 87.300781 -0.859375 C 86.585938 -1.179688 85.808594 -1.351562 85.003906 -1.351562 L 17.765625 -1.351562 C 13.546875 -1.351562 10.121094 2.078125 10.121094 6.296875 L 10.121094 105.699219 C 10.121094 109.917969 13.546875 113.347656 17.765625 113.347656 " fill-opacity="1" fill-rule="nonzero"/></g><path fill="#ffffff" d="M 25.414062 25.410156 C 25.414062 24.359375 26.273438 23.5 27.324219 23.5 L 38.796875 23.5 C 39.617188 23.5 40.304688 24.023438 40.570312 24.753906 L 34.972656 30.355469 L 32.5 27.882812 C 31.753906 27.136719 30.542969 27.136719 29.796875 27.882812 C 29.050781 28.628906 29.050781 29.839844 29.796875 30.585938 L 33.621094 34.410156 C 33.992188 34.785156 34.480469 34.96875 34.972656 34.96875 C 35.464844 34.96875 35.949219 34.785156 36.324219 34.410156 L 40.707031 30.027344 L 40.707031 36.882812 C 40.707031 37.933594 39.847656 38.792969 38.796875 38.792969 L 27.324219 38.792969 C 26.273438 38.792969 25.414062 37.933594 25.414062 36.882812 Z M 27.324219 42.617188 L 38.796875 42.617188 C 41.960938 42.617188 44.53125 40.046875 44.53125 36.882812 L 44.53125 26.203125 L 49.703125 21.027344 C 50.453125 20.28125 50.453125 19.070312 49.703125 18.324219 C 48.957031 17.578125 47.75 17.578125 47 18.324219 L 43.359375 21.96875 C 42.304688 20.589844 40.660156 19.675781 38.796875 19.675781 L 27.324219 19.675781 C 24.160156 19.675781 21.589844 22.246094 21.589844 25.410156 L 21.589844 36.882812 C 21.589844 40.046875 24.160156 42.617188 27.324219 42.617188 " fill-opacity="1" fill-rule="nonzero"/><path fill="#ffffff" d="M 25.414062 52.175781 C 25.414062 51.121094 26.273438 50.261719 27.324219 50.261719 L 38.796875 50.261719 C 39.847656 50.261719 40.707031 51.121094 40.707031 52.175781 L 40.707031 63.644531 C 40.707031 64.695312 39.847656 65.554688 38.796875 65.554688 L 27.324219 65.554688 C 26.273438 65.554688 25.414062 64.695312 25.414062 63.644531 Z M 27.324219 69.378906 L 38.796875 69.378906 C 41.960938 69.378906 44.53125 66.808594 44.53125 63.644531 L 44.53125 52.175781 C 44.53125 49.007812 41.960938 46.441406 38.796875 46.441406 L 27.324219 46.441406 C 24.160156 46.441406 21.589844 49.007812 21.589844 52.175781 L 21.589844 63.644531 C 21.589844 66.808594 24.160156 69.378906 27.324219 69.378906 " fill-opacity="1" fill-rule="nonzero"/><path fill="#ffffff" d="M 25.414062 78.9375 C 25.414062 77.882812 26.273438 77.027344 27.324219 77.027344 L 38.796875 77.027344 C 39.847656 77.027344 40.707031 77.882812 40.707031 78.9375 L 40.707031 90.40625 C 40.707031 91.460938 39.847656 92.320312 38.796875 92.320312 L 27.324219 92.320312 C 26.273438 92.320312 25.414062 91.460938 25.414062 90.40625 Z M 27.324219 96.140625 L 38.796875 96.140625 C 41.960938 96.140625 44.53125 93.574219 44.53125 90.40625 L 44.53125 78.9375 C 44.53125 75.769531 41.960938 73.203125 38.796875 73.203125 L 27.324219 73.203125 C 24.160156 73.203125 21.589844 75.769531 21.589844 78.9375 L 21.589844 90.40625 C 21.589844 93.574219 24.160156 96.140625 27.324219 96.140625 " fill-opacity="1" fill-rule="nonzero"/><path fill="#ffffff" d="M 56 27.324219 L 88.496094 27.324219 C 89.550781 27.324219 90.410156 26.464844 90.410156 25.410156 C 90.410156 24.359375 89.550781 23.5 88.496094 23.5 L 56 23.5 C 54.945312 23.5 54.089844 24.359375 54.089844 25.410156 C 54.089844 26.464844 54.945312 27.324219 56 27.324219 " fill-opacity="1" fill-rule="nonzero"/><path fill="#ffffff" d="M 56 36.882812 L 75.117188 36.882812 C 76.167969 36.882812 77.027344 36.023438 77.027344 34.96875 C 77.027344 33.917969 76.167969 33.058594 75.117188 33.058594 L 56 33.058594 C 54.945312 33.058594 54.089844 33.917969 54.089844 34.96875 C 54.089844 36.023438 54.945312 36.882812 56 36.882812 " fill-opacity="1" fill-rule="nonzero"/><path fill="#ffffff" d="M 56 54.085938 L 88.496094 54.085938 C 89.550781 54.085938 90.410156 53.226562 90.410156 52.175781 C 90.410156 51.121094 89.550781 50.261719 88.496094 50.261719 L 56 50.261719 C 54.945312 50.261719 54.089844 51.121094 54.089844 52.175781 C 54.089844 53.226562 54.945312 54.085938 56 54.085938 " fill-opacity="1" fill-rule="nonzero"/><path fill="#ffffff" d="M 56 63.644531 L 75.117188 63.644531 C 76.167969 63.644531 77.027344 62.785156 77.027344 61.734375 C 77.027344 60.679688 76.167969 59.820312 75.117188 59.820312 L 56 59.820312 C 54.945312 59.820312 54.089844 60.679688 54.089844 61.734375 C 54.089844 62.785156 54.945312 63.644531 56 63.644531 " fill-opacity="1" fill-rule="nonzero"/><path fill="#ffffff" d="M 56 80.847656 L 88.496094 80.847656 C 89.550781 80.847656 90.410156 79.988281 90.410156 78.9375 C 90.410156 77.882812 89.550781 77.027344 88.496094 77.027344 L 56 77.027344 C 54.945312 77.027344 54.089844 77.882812 54.089844 78.9375 C 54.089844 79.988281 54.945312 80.847656 56 80.847656 " fill-opacity="1" fill-rule="nonzero"/><path fill="#ffffff" d="M 56 90.40625 L 75.117188 90.40625 C 76.167969 90.40625 77.027344 89.546875 77.027344 88.496094 C 77.027344 87.441406 76.167969 86.582031 75.117188 86.582031 L 56 86.582031 C 54.945312 86.582031 54.089844 87.441406 54.089844 88.496094 C 54.089844 89.546875 54.945312 90.40625 56 90.40625 " fill-opacity="1" fill-rule="nonzero"/></svg>