<svg xmlns="http://www.w3.org/2000/svg" xmlns:xlink="http://www.w3.org/1999/xlink" width="150" zoomAndPan="magnify" viewBox="0 0 112.5 112.499997" height="150" preserveAspectRatio="xMidYMid meet" version="1.0"><defs><clipPath id="4e46aeca2a"><path d="M 1.578125 1.578125 L 110.59375 1.578125 L 110.59375 110.59375 L 1.578125 110.59375 Z M 1.578125 1.578125 " clip-rule="nonzero"/></clipPath></defs><g clip-path="url(#4e46aeca2a)"><path fill="#000000" d="M 56.085938 1.578125 C 26.03125 1.578125 1.578125 26.03125 1.578125 56.085938 C 1.578125 86.140625 26.03125 110.59375 56.085938 110.59375 C 86.140625 110.59375 110.59375 86.140625 110.59375 56.085938 C 110.59375 26.03125 86.140625 1.578125 56.085938 1.578125 Z M 56.085938 100.042969 C 31.847656 100.042969 12.128906 80.324219 12.128906 56.085938 C 12.128906 31.847656 31.847656 12.128906 56.085938 12.128906 C 80.324219 12.128906 100.042969 31.847656 100.042969 56.085938 C 100.042969 80.324219 80.324219 100.042969 56.085938 100.042969 Z M 56.085938 100.042969 " fill-opacity="1" fill-rule="nonzero"/></g><path fill="#000000" d="M 76.527344 50.8125 L 61.359375 50.8125 L 61.359375 35.644531 C 61.359375 32.730469 59 30.371094 56.085938 30.371094 C 53.171875 30.371094 50.8125 32.730469 50.8125 35.644531 L 50.8125 50.8125 L 35.644531 50.8125 C 32.730469 50.8125 30.371094 53.171875 30.371094 56.085938 C 30.371094 59 32.730469 61.359375 35.644531 61.359375 L 50.8125 61.359375 L 50.8125 76.527344 C 50.8125 79.4375 53.171875 81.800781 56.085938 81.800781 C 59 81.800781 61.359375 79.4375 61.359375 76.527344 L 61.359375 61.359375 L 76.527344 61.359375 C 79.441406 61.359375 81.800781 59 81.800781 56.085938 C 81.800781 53.171875 79.441406 50.8125 76.527344 50.8125 Z M 76.527344 50.8125 " fill-opacity="1" fill-rule="nonzero"/></svg>